<svg version="1.1" viewBox="80.0 250.0 960.0 600.0" fill="none" stroke="none" stroke-linecap="square" stroke-miterlimit="10" xmlns:xlink="http://www.w3.org/1999/xlink" xmlns="http://www.w3.org/2000/svg"><clipPath id="p.0"><path d="m0 0l960.0 0l0 600.0l-960.0 0l0 -600.0z" clip-rule="nonzero"/></clipPath><g clip-path="url(#p.0)"><path fill="#000000" fill-opacity="0.0" d="m0 0l960.0 0l0 600.0l-960.0 0z" fill-rule="evenodd"/><path fill="#000000" fill-opacity="0.0" d="m156.08136 4.8923883l1.448822 535.9055" fill-rule="evenodd"/><path stroke="#000000" stroke-width="1.0" stroke-linejoin="round" stroke-linecap="butt" d="m156.08136 4.8923883l1.448822 535.9055" fill-rule="evenodd"/><path fill="#000000" fill-opacity="0.0" d="m712.0 540.68506l-554.61414 -0.6929321" fill-rule="evenodd"/><path stroke="#000000" stroke-width="1.0" stroke-linejoin="round" stroke-linecap="butt" d="m712.0 540.68506l-554.61414 -0.6929321" fill-rule="evenodd"/><path fill="#000000" fill-opacity="0.0" d="m229.20735 557.98425l414.89764 0l0 42.015747l-414.89764 0z" fill-rule="evenodd"/><path fill="#000000" d="m391.5664 584.90424l0 -11.78125l-4.40625 0l0 -1.578125l10.578125 0l0 1.578125l-4.40625 0l0 11.78125l-1.765625 0zm7.0939026 -11.46875l0 -1.890625l1.640625 0l0 1.890625l-1.640625 0zm0 11.46875l0 -9.671875l1.640625 0l0 9.671875l-1.640625 0zm4.144806 0l0 -9.671875l1.46875 0l0 1.359375q0.453125 -0.71875 1.203125 -1.140625q0.765625 -0.4375 1.71875 -0.4375q1.078125 0 1.765625 0.453125q0.6875 0.4375 0.96875 1.234375q1.15625 -1.6875 2.984375 -1.6875q1.453125 0 2.21875 0.796875q0.78125 0.796875 0.78125 2.453125l0 6.640625l-1.640625 0l0 -6.09375q0 -0.984375 -0.15625 -1.40625q-0.15625 -0.4375 -0.578125 -0.703125q-0.421875 -0.265625 -0.984375 -0.265625q-1.015625 0 -1.6875 0.6875q-0.671875 0.671875 -0.671875 2.15625l0 5.625l-1.640625 0l0 -6.28125q0 -1.09375 -0.40625 -1.640625q-0.40625 -0.546875 -1.3125 -0.546875q-0.6875 0 -1.28125 0.359375q-0.59375 0.359375 -0.859375 1.0625q-0.25 0.703125 -0.25 2.03125l0 5.015625l-1.640625 0zm22.165802 -3.109375l1.6875 0.203125q-0.40625 1.484375 -1.484375 2.3125q-1.078125 0.8125 -2.765625 0.8125q-2.125 0 -3.375 -1.296875q-1.234375 -1.3125 -1.234375 -3.671875q0 -2.453125 1.25 -3.796875q1.265625 -1.34375 3.265625 -1.34375q1.9375 0 3.15625 1.328125q1.234375 1.3125 1.234375 3.703125q0 0.15625 0 0.4375l-7.21875 0q0.09375 1.59375 0.90625 2.453125q0.8125 0.84375 2.015625 0.84375q0.90625 0 1.546875 -0.46875q0.640625 -0.484375 1.015625 -1.515625zm-5.390625 -2.65625l5.40625 0q-0.109375 -1.21875 -0.625 -1.828125q-0.78125 -0.953125 -2.03125 -0.953125q-1.125 0 -1.90625 0.765625q-0.765625 0.75 -0.84375 2.015625zm13.715271 0.921875q0 -2.6875 1.484375 -3.96875q1.25 -1.078125 3.046875 -1.078125q2.0 0 3.265625 1.3125q1.265625 1.296875 1.265625 3.609375q0 1.859375 -0.5625 2.9375q-0.5625 1.0625 -1.640625 1.65625q-1.0625 0.59375 -2.328125 0.59375q-2.03125 0 -3.28125 -1.296875q-1.25 -1.3125 -1.25 -3.765625zm1.6875 0q0 1.859375 0.796875 2.796875q0.8125 0.921875 2.046875 0.921875q1.21875 0 2.03125 -0.921875q0.8125 -0.9375 0.8125 -2.84375q0 -1.796875 -0.8125 -2.71875q-0.8125 -0.921875 -2.03125 -0.921875q-1.234375 0 -2.046875 0.921875q-0.796875 0.90625 -0.796875 2.765625zm9.688232 4.84375l0 -8.40625l-1.453125 0l0 -1.265625l1.453125 0l0 -1.03125q0 -0.96875 0.171875 -1.453125q0.234375 -0.640625 0.828125 -1.03125q0.59375 -0.390625 1.671875 -0.390625q0.6875 0 1.53125 0.15625l-0.25 1.4375q-0.5 -0.09375 -0.953125 -0.09375q-0.75 0 -1.0625 0.328125q-0.3125 0.3125 -0.3125 1.1875l0 0.890625l1.890625 0l0 1.265625l-1.890625 0l0 8.40625l-1.625 0zm10.179108 0l0 -13.359375l4.609375 0q1.546875 0 2.375 0.203125q1.140625 0.25 1.953125 0.953125q1.0625 0.890625 1.578125 2.28125q0.53125 1.390625 0.53125 3.171875q0 1.515625 -0.359375 2.703125q-0.359375 1.171875 -0.921875 1.9375q-0.546875 0.765625 -1.203125 1.21875q-0.65625 0.4375 -1.59375 0.671875q-0.9375 0.21875 -2.140625 0.21875l-4.828125 0zm1.765625 -1.578125l2.859375 0q1.3125 0 2.0625 -0.234375q0.75 -0.25 1.203125 -0.703125q0.625 -0.625 0.96875 -1.6875q0.359375 -1.0625 0.359375 -2.578125q0 -2.09375 -0.6875 -3.21875q-0.6875 -1.125 -1.671875 -1.5q-0.703125 -0.28125 -2.28125 -0.28125l-2.8125 0l0 10.203125zm17.81668 0.390625q-0.921875 0.765625 -1.765625 1.09375q-0.828125 0.3125 -1.796875 0.3125q-1.59375 0 -2.453125 -0.78125q-0.859375 -0.78125 -0.859375 -1.984375q0 -0.71875 0.328125 -1.296875q0.328125 -0.59375 0.84375 -0.9375q0.53125 -0.359375 1.1875 -0.546875q0.46875 -0.125 1.453125 -0.25q1.984375 -0.234375 2.921875 -0.5625q0.015625 -0.34375 0.015625 -0.421875q0 -1.0 -0.46875 -1.421875q-0.625 -0.546875 -1.875 -0.546875q-1.15625 0 -1.703125 0.40625q-0.546875 0.40625 -0.8125 1.421875l-1.609375 -0.21875q0.21875 -1.015625 0.71875 -1.640625q0.5 -0.640625 1.453125 -0.984375q0.953125 -0.34375 2.1875 -0.34375q1.25 0 2.015625 0.296875q0.78125 0.28125 1.140625 0.734375q0.375 0.4375 0.515625 1.109375q0.078125 0.421875 0.078125 1.515625l0 2.1875q0 2.28125 0.109375 2.890625q0.109375 0.59375 0.40625 1.15625l-1.703125 0q-0.265625 -0.515625 -0.328125 -1.1875zm-0.140625 -3.671875q-0.890625 0.375 -2.671875 0.625q-1.015625 0.140625 -1.4375 0.328125q-0.421875 0.1875 -0.65625 0.53125q-0.21875 0.34375 -0.21875 0.78125q0 0.65625 0.5 1.09375q0.5 0.4375 1.453125 0.4375q0.9375 0 1.671875 -0.40625q0.75 -0.421875 1.09375 -1.140625q0.265625 -0.5625 0.265625 -1.640625l0 -0.609375zm4.1257324 8.578125l-0.1875 -1.53125q0.546875 0.140625 0.9375 0.140625q0.546875 0 0.875 -0.1875q0.328125 -0.171875 0.546875 -0.5q0.15625 -0.25 0.5 -1.21875q0.046875 -0.140625 0.140625 -0.40625l-3.671875 -9.6875l1.765625 0l2.015625 5.59375q0.390625 1.078125 0.703125 2.25q0.28125 -1.125 0.671875 -2.203125l2.078125 -5.640625l1.6405945 0l-3.6874695 9.828125q-0.59375 1.609375 -0.921875 2.203125q-0.4375 0.8125 -1.0 1.1875q-0.5625 0.375 -1.34375 0.375q-0.484375 0 -1.0625 -0.203125z" fill-rule="nonzero"/><path fill="#000000" fill-opacity="0.0" d="m181.14699 532.05774l0 15.842529" fill-rule="evenodd"/><path stroke="#000000" stroke-width="1.0" stroke-linejoin="round" stroke-linecap="butt" d="m181.14699 532.05774l0 15.842529" fill-rule="evenodd"/><path fill="#000000" fill-opacity="0.0" d="m157.53018 532.05774l0 15.842529" fill-rule="evenodd"/><path stroke="#000000" stroke-width="1.0" stroke-linejoin="round" stroke-linecap="butt" d="m157.53018 532.05774l0 15.842529" fill-rule="evenodd"/><path fill="#000000" fill-opacity="0.0" d="m204.34908 532.05774l0 15.842529" fill-rule="evenodd"/><path stroke="#000000" stroke-width="1.0" stroke-linejoin="round" stroke-linecap="butt" d="m204.34908 532.05774l0 15.842529" fill-rule="evenodd"/><path fill="#000000" fill-opacity="0.0" d="m226.83202 532.05774l0 15.842529" fill-rule="evenodd"/><path stroke="#000000" stroke-width="1.0" stroke-linejoin="round" stroke-linecap="butt" d="m226.83202 532.05774l0 15.842529" fill-rule="evenodd"/><path fill="#000000" fill-opacity="0.0" d="m250.7559 532.05774l0 15.842529" fill-rule="evenodd"/><path stroke="#000000" stroke-width="1.0" stroke-linejoin="round" stroke-linecap="butt" d="m250.7559 532.05774l0 15.842529" fill-rule="evenodd"/><path fill="#000000" fill-opacity="0.0" d="m273.23883 532.05774l0 15.842529" fill-rule="evenodd"/><path stroke="#000000" stroke-width="1.0" stroke-linejoin="round" stroke-linecap="butt" d="m273.23883 532.05774l0 15.842529" fill-rule="evenodd"/><path fill="#000000" fill-opacity="0.0" d="m295.00262 532.05774l0 15.842529" fill-rule="evenodd"/><path stroke="#000000" stroke-width="1.0" stroke-linejoin="round" stroke-linecap="butt" d="m295.00262 532.05774l0 15.842529" fill-rule="evenodd"/><path fill="#000000" fill-opacity="0.0" d="m319.64566 532.05774l0 15.842529" fill-rule="evenodd"/><path stroke="#000000" stroke-width="1.0" stroke-linejoin="round" stroke-linecap="butt" d="m319.64566 532.05774l0 15.842529" fill-rule="evenodd"/><path fill="#000000" fill-opacity="0.0" d="m342.84778 532.05774l0 15.842529" fill-rule="evenodd"/><path stroke="#000000" stroke-width="1.0" stroke-linejoin="round" stroke-linecap="butt" d="m342.84778 532.05774l0 15.842529" fill-rule="evenodd"/><path fill="#000000" fill-opacity="0.0" d="m366.77167 532.05774l0 15.842529" fill-rule="evenodd"/><path stroke="#000000" stroke-width="1.0" stroke-linejoin="round" stroke-linecap="butt" d="m366.77167 532.05774l0 15.842529" fill-rule="evenodd"/><path fill="#000000" fill-opacity="0.0" d="m388.53543 532.05774l0 15.842529" fill-rule="evenodd"/><path stroke="#000000" stroke-width="1.0" stroke-linejoin="round" stroke-linecap="butt" d="m388.53543 532.05774l0 15.842529" fill-rule="evenodd"/><path fill="#000000" fill-opacity="0.0" d="m408.85565 532.05774l0 15.842529" fill-rule="evenodd"/><path stroke="#000000" stroke-width="1.0" stroke-linejoin="round" stroke-linecap="butt" d="m408.85565 532.05774l0 15.842529" fill-rule="evenodd"/><path fill="#000000" fill-opacity="0.0" d="m432.05774 532.05774l0 15.842529" fill-rule="evenodd"/><path stroke="#000000" stroke-width="1.0" stroke-linejoin="round" stroke-linecap="butt" d="m432.05774 532.05774l0 15.842529" fill-rule="evenodd"/><path fill="#000000" fill-opacity="0.0" d="m458.14172 532.05774l0 15.842529" fill-rule="evenodd"/><path stroke="#000000" stroke-width="1.0" stroke-linejoin="round" stroke-linecap="butt" d="m458.14172 532.05774l0 15.842529" fill-rule="evenodd"/><path fill="#000000" fill-opacity="0.0" d="m481.34647 532.05774l0 15.842529" fill-rule="evenodd"/><path stroke="#000000" stroke-width="1.0" stroke-linejoin="round" stroke-linecap="butt" d="m481.34647 532.05774l0 15.842529" fill-rule="evenodd"/><path fill="#000000" fill-opacity="0.0" d="m504.55118 532.05774l0 15.842529" fill-rule="evenodd"/><path stroke="#000000" stroke-width="1.0" stroke-linejoin="round" stroke-linecap="butt" d="m504.55118 532.05774l0 15.842529" fill-rule="evenodd"/><path fill="#000000" fill-opacity="0.0" d="m527.7559 532.05774l0 15.842529" fill-rule="evenodd"/><path stroke="#000000" stroke-width="1.0" stroke-linejoin="round" stroke-linecap="butt" d="m527.7559 532.05774l0 15.842529" fill-rule="evenodd"/><path fill="#000000" fill-opacity="0.0" d="m550.96063 532.05774l0 15.842529" fill-rule="evenodd"/><path stroke="#000000" stroke-width="1.0" stroke-linejoin="round" stroke-linecap="butt" d="m550.96063 532.05774l0 15.842529" fill-rule="evenodd"/><path fill="#000000" fill-opacity="0.0" d="m573.44354 532.05774l0 15.842529" fill-rule="evenodd"/><path stroke="#000000" stroke-width="1.0" stroke-linejoin="round" stroke-linecap="butt" d="m573.44354 532.05774l0 15.842529" fill-rule="evenodd"/><path fill="#000000" fill-opacity="0.0" d="m597.36743 532.05774l0 15.842529" fill-rule="evenodd"/><path stroke="#000000" stroke-width="1.0" stroke-linejoin="round" stroke-linecap="butt" d="m597.36743 532.05774l0 15.842529" fill-rule="evenodd"/><path fill="#000000" fill-opacity="0.0" d="m619.8478 532.05774l0 15.842529" fill-rule="evenodd"/><path stroke="#000000" stroke-width="1.0" stroke-linejoin="round" stroke-linecap="butt" d="m619.8478 532.05774l0 15.842529" fill-rule="evenodd"/><path fill="#000000" fill-opacity="0.0" d="m642.3307 532.05774l0 15.842529" fill-rule="evenodd"/><path stroke="#000000" stroke-width="1.0" stroke-linejoin="round" stroke-linecap="butt" d="m642.3307 532.05774l0 15.842529" fill-rule="evenodd"/><path fill="#000000" fill-opacity="0.0" d="m664.81366 532.05774l0 15.842529" fill-rule="evenodd"/><path stroke="#000000" stroke-width="1.0" stroke-linejoin="round" stroke-linecap="butt" d="m664.81366 532.05774l0 15.842529" fill-rule="evenodd"/><path fill="#000000" fill-opacity="0.0" d="m688.73755 532.05774l0 15.842529" fill-rule="evenodd"/><path stroke="#000000" stroke-width="1.0" stroke-linejoin="round" stroke-linecap="butt" d="m688.73755 532.05774l0 15.842529" fill-rule="evenodd"/><path fill="#000000" fill-opacity="0.0" d="m137.29659 540.7979l42.015747 0l0 29.070862l-42.015747 0z" fill-rule="evenodd"/><path fill="#000000" d="m146.62471 554.6498q0 -1.015625 0.203125 -1.625q0.21875 -0.625 0.625 -0.953125q0.421875 -0.34375 1.046875 -0.34375q0.453125 0 0.796875 0.1875q0.359375 0.1875 0.578125 0.53125q0.234375 0.34375 0.359375 0.859375q0.125 0.5 0.125 1.34375q0 1.015625 -0.203125 1.640625q-0.203125 0.609375 -0.625 0.953125q-0.40625 0.328125 -1.03125 0.328125q-0.828125 0 -1.296875 -0.59375q-0.578125 -0.71875 -0.578125 -2.328125zm0.734375 0q0 1.40625 0.328125 1.875q0.328125 0.46875 0.8125 0.46875q0.484375 0 0.8125 -0.46875q0.328125 -0.46875 0.328125 -1.875q0 -1.40625 -0.328125 -1.875q-0.328125 -0.46875 -0.828125 -0.46875q-0.484375 0 -0.765625 0.40625q-0.359375 0.53125 -0.359375 1.9375zm3.7148438 0q0 -1.015625 0.203125 -1.625q0.21875 -0.625 0.625 -0.953125q0.421875 -0.34375 1.046875 -0.34375q0.453125 0 0.796875 0.1875q0.359375 0.1875 0.578125 0.53125q0.234375 0.34375 0.359375 0.859375q0.125 0.5 0.125 1.34375q0 1.015625 -0.203125 1.640625q-0.203125 0.609375 -0.625 0.953125q-0.40625 0.328125 -1.03125 0.328125q-0.828125 0 -1.296875 -0.59375q-0.578125 -0.71875 -0.578125 -2.328125zm0.734375 0q0 1.40625 0.328125 1.875q0.328125 0.46875 0.8125 0.46875q0.484375 0 0.8125 -0.46875q0.328125 -0.46875 0.328125 -1.875q0 -1.40625 -0.328125 -1.875q-0.328125 -0.46875 -0.828125 -0.46875q-0.484375 0 -0.765625 0.40625q-0.359375 0.53125 -0.359375 1.9375zm4.1054688 -0.515625l0 -0.8125l0.8125 0l0 0.8125l-0.8125 0zm0 3.34375l0 -0.796875l0.8125 0l0 0.796875l-0.8125 0zm1.8320312 -2.828125q0 -1.015625 0.203125 -1.625q0.21875 -0.625 0.625 -0.953125q0.421875 -0.34375 1.046875 -0.34375q0.453125 0 0.796875 0.1875q0.359375 0.1875 0.578125 0.53125q0.234375 0.34375 0.359375 0.859375q0.125 0.5 0.125 1.34375q0 1.015625 -0.203125 1.640625q-0.203125 0.609375 -0.625 0.953125q-0.40625 0.328125 -1.03125 0.328125q-0.828125 0 -1.296875 -0.59375q-0.578125 -0.71875 -0.578125 -2.328125zm0.734375 0q0 1.40625 0.328125 1.875q0.328125 0.46875 0.8125 0.46875q0.484375 0 0.8125 -0.46875q0.328125 -0.46875 0.328125 -1.875q0 -1.40625 -0.328125 -1.875q-0.328125 -0.46875 -0.828125 -0.46875q-0.484375 0 -0.765625 0.40625q-0.359375 0.53125 -0.359375 1.9375zm3.7148438 0q0 -1.015625 0.203125 -1.625q0.21875 -0.625 0.625 -0.953125q0.421875 -0.34375 1.046875 -0.34375q0.453125 0 0.796875 0.1875q0.359375 0.1875 0.578125 0.53125q0.234375 0.34375 0.359375 0.859375q0.125 0.5 0.125 1.34375q0 1.015625 -0.203125 1.640625q-0.203125 0.609375 -0.625 0.953125q-0.40625 0.328125 -1.03125 0.328125q-0.828125 0 -1.296875 -0.59375q-0.578125 -0.71875 -0.578125 -2.328125zm0.734375 0q0 1.40625 0.328125 1.875q0.328125 0.46875 0.8125 0.46875q0.484375 0 0.8125 -0.46875q0.328125 -0.46875 0.328125 -1.875q0 -1.40625 -0.328125 -1.875q-0.328125 -0.46875 -0.828125 -0.46875q-0.484375 0 -0.765625 0.40625q-0.359375 0.53125 -0.359375 1.9375z" fill-rule="nonzero"/><path fill="#000000" fill-opacity="0.0" d="m161.58005 540.7979l42.015747 0l0 29.070862l-42.015747 0z" fill-rule="evenodd"/><path fill="#000000" d="m170.90817 554.6498q0 -1.015625 0.203125 -1.625q0.21875 -0.625 0.625 -0.953125q0.421875 -0.34375 1.046875 -0.34375q0.453125 0 0.796875 0.1875q0.359375 0.1875 0.578125 0.53125q0.234375 0.34375 0.359375 0.859375q0.125 0.5 0.125 1.34375q0 1.015625 -0.203125 1.640625q-0.203125 0.609375 -0.625 0.953125q-0.40625 0.328125 -1.03125 0.328125q-0.828125 0 -1.296875 -0.59375q-0.578125 -0.71875 -0.578125 -2.328125zm0.734375 0q0 1.40625 0.328125 1.875q0.328125 0.46875 0.8125 0.46875q0.484375 0 0.8125 -0.46875q0.328125 -0.46875 0.328125 -1.875q0 -1.40625 -0.328125 -1.875q-0.328125 -0.46875 -0.828125 -0.46875q-0.484375 0 -0.765625 0.40625q-0.359375 0.53125 -0.359375 1.9375zm6.3710938 2.828125l-0.703125 0l0 -4.484375q-0.25 0.25 -0.671875 0.5q-0.40625 0.234375 -0.734375 0.34375l0 -0.671875q0.59375 -0.28125 1.03125 -0.671875q0.4375 -0.390625 0.625 -0.765625l0.453125 0l0 5.75zm2.1835938 -3.34375l0 -0.8125l0.8125 0l0 0.8125l-0.8125 0zm0 3.34375l0 -0.796875l0.8125 0l0 0.796875l-0.8125 0zm1.8320312 -2.828125q0 -1.015625 0.203125 -1.625q0.21875 -0.625 0.625 -0.953125q0.421875 -0.34375 1.046875 -0.34375q0.453125 0 0.796875 0.1875q0.359375 0.1875 0.578125 0.53125q0.234375 0.34375 0.359375 0.859375q0.125 0.5 0.125 1.34375q0 1.015625 -0.203125 1.640625q-0.203125 0.609375 -0.625 0.953125q-0.40625 0.328125 -1.03125 0.328125q-0.828125 0 -1.296875 -0.59375q-0.578125 -0.71875 -0.578125 -2.328125zm0.734375 0q0 1.40625 0.328125 1.875q0.328125 0.46875 0.8125 0.46875q0.484375 0 0.8125 -0.46875q0.328125 -0.46875 0.328125 -1.875q0 -1.40625 -0.328125 -1.875q-0.328125 -0.46875 -0.828125 -0.46875q-0.484375 0 -0.765625 0.40625q-0.359375 0.53125 -0.359375 1.9375zm3.7148438 0q0 -1.015625 0.203125 -1.625q0.21875 -0.625 0.625 -0.953125q0.421875 -0.34375 1.046875 -0.34375q0.453125 0 0.796875 0.1875q0.359375 0.1875 0.578125 0.53125q0.234375 0.34375 0.359375 0.859375q0.125 0.5 0.125 1.34375q0 1.015625 -0.203125 1.640625q-0.203125 0.609375 -0.625 0.953125q-0.40625 0.328125 -1.03125 0.328125q-0.828125 0 -1.296875 -0.59375q-0.578125 -0.71875 -0.578125 -2.328125zm0.734375 0q0 1.40625 0.328125 1.875q0.328125 0.46875 0.8125 0.46875q0.484375 0 0.8125 -0.46875q0.328125 -0.46875 0.328125 -1.875q0 -1.40625 -0.328125 -1.875q-0.328125 -0.46875 -0.828125 -0.46875q-0.484375 0 -0.765625 0.40625q-0.359375 0.53125 -0.359375 1.9375z" fill-rule="nonzero"/><path fill="#000000" fill-opacity="0.0" d="m185.34908 540.7979l42.015747 0l0 29.070862l-42.015747 0z" fill-rule="evenodd"/><path fill="#000000" d="m194.6772 554.6498q0 -1.015625 0.203125 -1.625q0.21875 -0.625 0.625 -0.953125q0.421875 -0.34375 1.046875 -0.34375q0.453125 0 0.796875 0.1875q0.359375 0.1875 0.578125 0.53125q0.234375 0.34375 0.359375 0.859375q0.125 0.5 0.125 1.34375q0 1.015625 -0.203125 1.640625q-0.203125 0.609375 -0.625 0.953125q-0.40625 0.328125 -1.03125 0.328125q-0.828125 0 -1.296875 -0.59375q-0.578125 -0.71875 -0.578125 -2.328125zm0.734375 0q0 1.40625 0.328125 1.875q0.328125 0.46875 0.8125 0.46875q0.484375 0 0.8125 -0.46875q0.328125 -0.46875 0.328125 -1.875q0 -1.40625 -0.328125 -1.875q-0.328125 -0.46875 -0.828125 -0.46875q-0.484375 0 -0.765625 0.40625q-0.359375 0.53125 -0.359375 1.9375zm7.4179688 2.15625l0 0.671875l-3.78125 0q-0.015625 -0.25 0.078125 -0.484375q0.140625 -0.390625 0.453125 -0.765625q0.328125 -0.375 0.921875 -0.875q0.9375 -0.765625 1.265625 -1.203125q0.328125 -0.453125 0.328125 -0.84375q0 -0.421875 -0.296875 -0.703125q-0.296875 -0.296875 -0.78125 -0.296875q-0.5 0 -0.8125 0.3125q-0.296875 0.296875 -0.3125 0.84375l-0.71875 -0.078125q0.078125 -0.8125 0.5625 -1.234375q0.484375 -0.421875 1.296875 -0.421875q0.828125 0 1.296875 0.453125q0.484375 0.453125 0.484375 1.140625q0 0.34375 -0.140625 0.671875q-0.140625 0.328125 -0.46875 0.703125q-0.3125 0.359375 -1.078125 1.0q-0.625 0.53125 -0.8125 0.71875q-0.171875 0.1875 -0.296875 0.390625l2.8125 0zm1.1367188 -2.671875l0 -0.8125l0.8125 0l0 0.8125l-0.8125 0zm0 3.34375l0 -0.796875l0.8125 0l0 0.796875l-0.8125 0zm1.8320312 -2.828125q0 -1.015625 0.203125 -1.625q0.21875 -0.625 0.625 -0.953125q0.421875 -0.34375 1.046875 -0.34375q0.453125 0 0.796875 0.1875q0.359375 0.1875 0.578125 0.53125q0.234375 0.34375 0.359375 0.859375q0.125 0.5 0.125 1.34375q0 1.015625 -0.203125 1.640625q-0.203125 0.609375 -0.625 0.953125q-0.40625 0.328125 -1.03125 0.328125q-0.828125 0 -1.296875 -0.59375q-0.578125 -0.71875 -0.578125 -2.328125zm0.734375 0q0 1.40625 0.328125 1.875q0.328125 0.46875 0.8125 0.46875q0.484375 0 0.8125 -0.46875q0.328125 -0.46875 0.328125 -1.875q0 -1.40625 -0.328125 -1.875q-0.328125 -0.46875 -0.828125 -0.46875q-0.484375 0 -0.765625 0.40625q-0.359375 0.53125 -0.359375 1.9375zm3.7148438 0q0 -1.015625 0.203125 -1.625q0.21875 -0.625 0.625 -0.953125q0.421875 -0.34375 1.046875 -0.34375q0.453125 0 0.796875 0.1875q0.359375 0.1875 0.578125 0.53125q0.234375 0.34375 0.359375 0.859375q0.125 0.5 0.125 1.34375q0 1.015625 -0.203125 1.640625q-0.203125 0.609375 -0.625 0.953125q-0.40625 0.328125 -1.03125 0.328125q-0.828125 0 -1.296875 -0.59375q-0.578125 -0.71875 -0.578125 -2.328125zm0.734375 0q0 1.40625 0.328125 1.875q0.328125 0.46875 0.8125 0.46875q0.484375 0 0.8125 -0.46875q0.328125 -0.46875 0.328125 -1.875q0 -1.40625 -0.328125 -1.875q-0.328125 -0.46875 -0.828125 -0.46875q-0.484375 0 -0.765625 0.40625q-0.359375 0.53125 -0.359375 1.9375z" fill-rule="nonzero"/><path fill="#000000" fill-opacity="0.0" d="m207.64568 540.7979l42.015747 0l0 29.070862l-42.015747 0z" fill-rule="evenodd"/><path fill="#000000" d="m216.9738 554.6498q0 -1.015625 0.203125 -1.625q0.21875 -0.625 0.625 -0.953125q0.421875 -0.34375 1.046875 -0.34375q0.453125 0 0.796875 0.1875q0.359375 0.1875 0.578125 0.53125q0.234375 0.34375 0.359375 0.859375q0.125 0.5 0.125 1.34375q0 1.015625 -0.203125 1.640625q-0.203125 0.609375 -0.625 0.953125q-0.40625 0.328125 -1.03125 0.328125q-0.828125 0 -1.296875 -0.59375q-0.578125 -0.71875 -0.578125 -2.328125zm0.734375 0q0 1.40625 0.328125 1.875q0.328125 0.46875 0.8125 0.46875q0.484375 0 0.8125 -0.46875q0.328125 -0.46875 0.328125 -1.875q0 -1.40625 -0.328125 -1.875q-0.328125 -0.46875 -0.828125 -0.46875q-0.484375 0 -0.765625 0.40625q-0.359375 0.53125 -0.359375 1.9375zm3.7304688 1.3125l0.703125 -0.09375q0.109375 0.59375 0.40625 0.859375q0.296875 0.265625 0.703125 0.265625q0.5 0 0.84375 -0.34375q0.34375 -0.34375 0.34375 -0.84375q0 -0.484375 -0.328125 -0.796875q-0.3125 -0.328125 -0.796875 -0.328125q-0.203125 0 -0.5 0.078125l0.078125 -0.609375q0.078125 0 0.125 0q0.4375 0 0.796875 -0.234375q0.359375 -0.234375 0.359375 -0.71875q0 -0.390625 -0.265625 -0.640625q-0.25 -0.25 -0.671875 -0.25q-0.40625 0 -0.6875 0.265625q-0.265625 0.25 -0.34375 0.765625l-0.703125 -0.125q0.125 -0.703125 0.578125 -1.09375q0.46875 -0.390625 1.140625 -0.390625q0.46875 0 0.859375 0.203125q0.40625 0.203125 0.609375 0.546875q0.21875 0.34375 0.21875 0.734375q0 0.375 -0.203125 0.6875q-0.203125 0.296875 -0.59375 0.46875q0.515625 0.125 0.796875 0.5q0.28125 0.359375 0.28125 0.921875q0 0.75 -0.546875 1.28125q-0.546875 0.515625 -1.390625 0.515625q-0.75 0 -1.25 -0.453125q-0.5 -0.453125 -0.5625 -1.171875zm4.8242188 -1.828125l0 -0.8125l0.8125 0l0 0.8125l-0.8125 0zm0 3.34375l0 -0.796875l0.8125 0l0 0.796875l-0.8125 0zm1.8320312 -2.828125q0 -1.015625 0.203125 -1.625q0.21875 -0.625 0.625 -0.953125q0.421875 -0.34375 1.046875 -0.34375q0.453125 0 0.796875 0.1875q0.359375 0.1875 0.578125 0.53125q0.234375 0.34375 0.359375 0.859375q0.125 0.5 0.125 1.34375q0 1.015625 -0.203125 1.640625q-0.203125 0.609375 -0.625 0.953125q-0.40625 0.328125 -1.03125 0.328125q-0.828125 0 -1.296875 -0.59375q-0.578125 -0.71875 -0.578125 -2.328125zm0.734375 0q0 1.40625 0.328125 1.875q0.328125 0.46875 0.8125 0.46875q0.484375 0 0.8125 -0.46875q0.328125 -0.46875 0.328125 -1.875q0 -1.40625 -0.328125 -1.875q-0.328125 -0.46875 -0.828125 -0.46875q-0.484375 0 -0.765625 0.40625q-0.359375 0.53125 -0.359375 1.9375zm3.7148438 0q0 -1.015625 0.203125 -1.625q0.21875 -0.625 0.625 -0.953125q0.421875 -0.34375 1.046875 -0.34375q0.453125 0 0.796875 0.1875q0.359375 0.1875 0.578125 0.53125q0.234375 0.34375 0.359375 0.859375q0.125 0.5 0.125 1.34375q0 1.015625 -0.203125 1.640625q-0.203125 0.609375 -0.625 0.953125q-0.40625 0.328125 -1.03125 0.328125q-0.828125 0 -1.296875 -0.59375q-0.578125 -0.71875 -0.578125 -2.328125zm0.734375 0q0 1.40625 0.328125 1.875q0.328125 0.46875 0.8125 0.46875q0.484375 0 0.8125 -0.46875q0.328125 -0.46875 0.328125 -1.875q0 -1.40625 -0.328125 -1.875q-0.328125 -0.46875 -0.828125 -0.46875q-0.484375 0 -0.765625 0.40625q-0.359375 0.53125 -0.359375 1.9375z" fill-rule="nonzero"/><path fill="#000000" fill-opacity="0.0" d="m231.92914 540.7979l42.015747 0l0 29.070862l-42.015747 0z" fill-rule="evenodd"/><path fill="#000000" d="m241.25726 554.6498q0 -1.015625 0.203125 -1.625q0.21875 -0.625 0.625 -0.953125q0.421875 -0.34375 1.046875 -0.34375q0.453125 0 0.796875 0.1875q0.359375 0.1875 0.578125 0.53125q0.234375 0.34375 0.359375 0.859375q0.125 0.5 0.125 1.34375q0 1.015625 -0.203125 1.640625q-0.203125 0.609375 -0.625 0.953125q-0.40625 0.328125 -1.03125 0.328125q-0.828125 0 -1.296875 -0.59375q-0.578125 -0.71875 -0.578125 -2.328125zm0.734375 0q0 1.40625 0.328125 1.875q0.328125 0.46875 0.8125 0.46875q0.484375 0 0.8125 -0.46875q0.328125 -0.46875 0.328125 -1.875q0 -1.40625 -0.328125 -1.875q-0.328125 -0.46875 -0.828125 -0.46875q-0.484375 0 -0.765625 0.40625q-0.359375 0.53125 -0.359375 1.9375zm5.9804688 2.828125l0 -1.375l-2.484375 0l0 -0.640625l2.609375 -3.71875l0.578125 0l0 3.71875l0.765625 0l0 0.640625l-0.765625 0l0 1.375l-0.703125 0zm0 -2.015625l0 -2.578125l-1.796875 2.578125l1.796875 0zm2.5742188 -1.328125l0 -0.8125l0.8125 0l0 0.8125l-0.8125 0zm0 3.34375l0 -0.796875l0.8125 0l0 0.796875l-0.8125 0zm1.8320312 -2.828125q0 -1.015625 0.203125 -1.625q0.21875 -0.625 0.625 -0.953125q0.421875 -0.34375 1.046875 -0.34375q0.453125 0 0.796875 0.1875q0.359375 0.1875 0.578125 0.53125q0.234375 0.34375 0.359375 0.859375q0.125 0.5 0.125 1.34375q0 1.015625 -0.203125 1.640625q-0.203125 0.609375 -0.625 0.953125q-0.40625 0.328125 -1.03125 0.328125q-0.828125 0 -1.296875 -0.59375q-0.578125 -0.71875 -0.578125 -2.328125zm0.734375 0q0 1.40625 0.328125 1.875q0.328125 0.46875 0.8125 0.46875q0.484375 0 0.8125 -0.46875q0.328125 -0.46875 0.328125 -1.875q0 -1.40625 -0.328125 -1.875q-0.328125 -0.46875 -0.828125 -0.46875q-0.484375 0 -0.765625 0.40625q-0.359375 0.53125 -0.359375 1.9375zm3.7148438 0q0 -1.015625 0.203125 -1.625q0.21875 -0.625 0.625 -0.953125q0.421875 -0.34375 1.046875 -0.34375q0.453125 0 0.796875 0.1875q0.359375 0.1875 0.578125 0.53125q0.234375 0.34375 0.359375 0.859375q0.125 0.5 0.125 1.34375q0 1.015625 -0.203125 1.640625q-0.203125 0.609375 -0.625 0.953125q-0.40625 0.328125 -1.03125 0.328125q-0.828125 0 -1.296875 -0.59375q-0.578125 -0.71875 -0.578125 -2.328125zm0.734375 0q0 1.40625 0.328125 1.875q0.328125 0.46875 0.8125 0.46875q0.484375 0 0.8125 -0.46875q0.328125 -0.46875 0.328125 -1.875q0 -1.40625 -0.328125 -1.875q-0.328125 -0.46875 -0.828125 -0.46875q-0.484375 0 -0.765625 0.40625q-0.359375 0.53125 -0.359375 1.9375z" fill-rule="nonzero"/><path fill="#000000" fill-opacity="0.0" d="m255.69817 540.7979l42.01573 0l0 29.070862l-42.01573 0z" fill-rule="evenodd"/><path fill="#000000" d="m265.02628 554.6498q0 -1.015625 0.203125 -1.625q0.21875 -0.625 0.625 -0.953125q0.421875 -0.34375 1.046875 -0.34375q0.453125 0 0.796875 0.1875q0.359375 0.1875 0.578125 0.53125q0.234375 0.34375 0.359375 0.859375q0.125 0.5 0.125 1.34375q0 1.015625 -0.203125 1.640625q-0.203125 0.609375 -0.625 0.953125q-0.40625 0.328125 -1.03125 0.328125q-0.828125 0 -1.296875 -0.59375q-0.578125 -0.71875 -0.578125 -2.328125zm0.734375 0q0 1.40625 0.328125 1.875q0.328125 0.46875 0.8125 0.46875q0.484375 0 0.8125 -0.46875q0.328125 -0.46875 0.328125 -1.875q0 -1.40625 -0.328125 -1.875q-0.328125 -0.46875 -0.828125 -0.46875q-0.484375 0 -0.765625 0.40625q-0.359375 0.53125 -0.359375 1.9375zm3.7148438 1.328125l0.75 -0.0625q0.078125 0.53125 0.375 0.8125q0.296875 0.265625 0.71875 0.265625q0.515625 0 0.859375 -0.375q0.359375 -0.390625 0.359375 -1.015625q0 -0.609375 -0.34375 -0.953125q-0.34375 -0.34375 -0.890625 -0.34375q-0.328125 0 -0.609375 0.15625q-0.265625 0.140625 -0.421875 0.390625l-0.671875 -0.078125l0.5625 -2.953125l2.84375 0l0 0.671875l-2.28125 0l-0.3125 1.546875q0.515625 -0.359375 1.078125 -0.359375q0.75 0 1.265625 0.515625q0.515625 0.515625 0.515625 1.34375q0 0.765625 -0.453125 1.34375q-0.546875 0.6875 -1.5 0.6875q-0.78125 0 -1.28125 -0.4375q-0.484375 -0.4375 -0.5625 -1.15625zm4.8398438 -1.84375l0 -0.8125l0.8125 0l0 0.8125l-0.8125 0zm0 3.34375l0 -0.796875l0.8125 0l0 0.796875l-0.8125 0zm1.8320312 -2.828125q0 -1.015625 0.203125 -1.625q0.21875 -0.625 0.625 -0.953125q0.421875 -0.34375 1.046875 -0.34375q0.453125 0 0.796875 0.1875q0.359375 0.1875 0.578125 0.53125q0.234375 0.34375 0.359375 0.859375q0.125 0.5 0.125 1.34375q0 1.015625 -0.203125 1.640625q-0.203125 0.609375 -0.625 0.953125q-0.40625 0.328125 -1.03125 0.328125q-0.828125 0 -1.296875 -0.59375q-0.578125 -0.71875 -0.578125 -2.328125zm0.734375 0q0 1.40625 0.328125 1.875q0.328125 0.46875 0.8125 0.46875q0.484375 0 0.8125 -0.46875q0.328125 -0.46875 0.328125 -1.875q0 -1.40625 -0.328125 -1.875q-0.328125 -0.46875 -0.828125 -0.46875q-0.484375 0 -0.765625 0.40625q-0.359375 0.53125 -0.359375 1.9375zm3.7148438 0q0 -1.015625 0.203125 -1.625q0.21875 -0.625 0.625 -0.953125q0.421875 -0.34375 1.046875 -0.34375q0.453125 0 0.796875 0.1875q0.359375 0.1875 0.578125 0.53125q0.234375 0.34375 0.359375 0.859375q0.125 0.5 0.125 1.34375q0 1.015625 -0.203125 1.640625q-0.203125 0.609375 -0.625 0.953125q-0.40625 0.328125 -1.03125 0.328125q-0.828125 0 -1.296875 -0.59375q-0.578125 -0.71875 -0.578125 -2.328125zm0.734375 0q0 1.40625 0.328125 1.875q0.328125 0.46875 0.8125 0.46875q0.484375 0 0.8125 -0.46875q0.328125 -0.46875 0.328125 -1.875q0 -1.40625 -0.328125 -1.875q-0.328125 -0.46875 -0.828125 -0.46875q-0.484375 0 -0.765625 0.40625q-0.359375 0.53125 -0.359375 1.9375z" fill-rule="nonzero"/><path fill="#000000" fill-opacity="0.0" d="m277.11023 540.7979l42.015747 0l0 29.070862l-42.015747 0z" fill-rule="evenodd"/><path fill="#000000" d="m286.43835 554.6498q0 -1.015625 0.203125 -1.625q0.21875 -0.625 0.625 -0.953125q0.421875 -0.34375 1.046875 -0.34375q0.453125 0 0.796875 0.1875q0.359375 0.1875 0.578125 0.53125q0.234375 0.34375 0.359375 0.859375q0.125 0.5 0.125 1.34375q0 1.015625 -0.203125 1.640625q-0.203125 0.609375 -0.625 0.953125q-0.40625 0.328125 -1.03125 0.328125q-0.828125 0 -1.296875 -0.59375q-0.578125 -0.71875 -0.578125 -2.328125zm0.734375 0q0 1.40625 0.328125 1.875q0.328125 0.46875 0.8125 0.46875q0.484375 0 0.8125 -0.46875q0.328125 -0.46875 0.328125 -1.875q0 -1.40625 -0.328125 -1.875q-0.328125 -0.46875 -0.828125 -0.46875q-0.484375 0 -0.765625 0.40625q-0.359375 0.53125 -0.359375 1.9375zm7.3710938 -1.5l-0.703125 0.0625q-0.09375 -0.421875 -0.265625 -0.609375q-0.28125 -0.296875 -0.703125 -0.296875q-0.328125 0 -0.59375 0.1875q-0.328125 0.234375 -0.515625 0.703125q-0.1875 0.46875 -0.203125 1.328125q0.25 -0.390625 0.609375 -0.578125q0.375 -0.1875 0.78125 -0.1875q0.703125 0 1.1875 0.515625q0.5 0.515625 0.5 1.34375q0 0.53125 -0.234375 1.0q-0.21875 0.46875 -0.625 0.71875q-0.40625 0.234375 -0.921875 0.234375q-0.890625 0 -1.453125 -0.640625q-0.546875 -0.65625 -0.546875 -2.140625q0 -1.65625 0.625 -2.40625q0.53125 -0.65625 1.4375 -0.65625q0.671875 0 1.09375 0.375q0.4375 0.375 0.53125 1.046875zm-2.875 2.46875q0 0.359375 0.15625 0.703125q0.15625 0.328125 0.421875 0.5q0.28125 0.171875 0.59375 0.171875q0.4375 0 0.75 -0.359375q0.328125 -0.359375 0.328125 -0.96875q0 -0.59375 -0.3125 -0.9375q-0.3125 -0.34375 -0.796875 -0.34375q-0.46875 0 -0.8125 0.34375q-0.328125 0.34375 -0.328125 0.890625zm4.0585938 -1.484375l0 -0.8125l0.8125 0l0 0.8125l-0.8125 0zm0 3.34375l0 -0.796875l0.8125 0l0 0.796875l-0.8125 0zm1.8320312 -2.828125q0 -1.015625 0.203125 -1.625q0.21875 -0.625 0.625 -0.953125q0.421875 -0.34375 1.046875 -0.34375q0.453125 0 0.796875 0.1875q0.359375 0.1875 0.578125 0.53125q0.234375 0.34375 0.359375 0.859375q0.125 0.5 0.125 1.34375q0 1.015625 -0.203125 1.640625q-0.203125 0.609375 -0.625 0.953125q-0.40625 0.328125 -1.03125 0.328125q-0.828125 0 -1.296875 -0.59375q-0.578125 -0.71875 -0.578125 -2.328125zm0.734375 0q0 1.40625 0.328125 1.875q0.328125 0.46875 0.8125 0.46875q0.484375 0 0.8125 -0.46875q0.328125 -0.46875 0.328125 -1.875q0 -1.40625 -0.328125 -1.875q-0.328125 -0.46875 -0.828125 -0.46875q-0.484375 0 -0.765625 0.40625q-0.359375 0.53125 -0.359375 1.9375zm3.7148438 0q0 -1.015625 0.203125 -1.625q0.21875 -0.625 0.625 -0.953125q0.421875 -0.34375 1.046875 -0.34375q0.453125 0 0.796875 0.1875q0.359375 0.1875 0.578125 0.53125q0.234375 0.34375 0.359375 0.859375q0.125 0.5 0.125 1.34375q0 1.015625 -0.203125 1.640625q-0.203125 0.609375 -0.625 0.953125q-0.40625 0.328125 -1.03125 0.328125q-0.828125 0 -1.296875 -0.59375q-0.578125 -0.71875 -0.578125 -2.328125zm0.734375 0q0 1.40625 0.328125 1.875q0.328125 0.46875 0.8125 0.46875q0.484375 0 0.8125 -0.46875q0.328125 -0.46875 0.328125 -1.875q0 -1.40625 -0.328125 -1.875q-0.328125 -0.46875 -0.828125 -0.46875q-0.484375 0 -0.765625 0.40625q-0.359375 0.53125 -0.359375 1.9375z" fill-rule="nonzero"/><path fill="#000000" fill-opacity="0.0" d="m298.5223 540.7979l42.015747 0l0 29.070862l-42.015747 0z" fill-rule="evenodd"/><path fill="#000000" d="m307.85043 554.6498q0 -1.015625 0.203125 -1.625q0.21875 -0.625 0.625 -0.953125q0.421875 -0.34375 1.046875 -0.34375q0.453125 0 0.796875 0.1875q0.359375 0.1875 0.578125 0.53125q0.234375 0.34375 0.359375 0.859375q0.125 0.5 0.125 1.34375q0 1.015625 -0.203125 1.640625q-0.203125 0.609375 -0.625 0.953125q-0.40625 0.328125 -1.03125 0.328125q-0.828125 0 -1.296875 -0.59375q-0.578125 -0.71875 -0.578125 -2.328125zm0.734375 0q0 1.40625 0.328125 1.875q0.328125 0.46875 0.8125 0.46875q0.484375 0 0.8125 -0.46875q0.328125 -0.46875 0.328125 -1.875q0 -1.40625 -0.328125 -1.875q-0.328125 -0.46875 -0.828125 -0.46875q-0.484375 0 -0.765625 0.40625q-0.359375 0.53125 -0.359375 1.9375zm3.7617188 -2.15625l0 -0.671875l3.71875 0l0 0.546875q-0.546875 0.578125 -1.09375 1.546875q-0.53125 0.96875 -0.828125 1.984375q-0.203125 0.71875 -0.265625 1.578125l-0.71875 0q0 -0.671875 0.25 -1.625q0.265625 -0.96875 0.734375 -1.859375q0.484375 -0.890625 1.015625 -1.5l-2.8125 0zm4.7929688 1.640625l0 -0.8125l0.8125 0l0 0.8125l-0.8125 0zm0 3.34375l0 -0.796875l0.8125 0l0 0.796875l-0.8125 0zm1.8320312 -2.828125q0 -1.015625 0.203125 -1.625q0.21875 -0.625 0.625 -0.953125q0.421875 -0.34375 1.046875 -0.34375q0.453125 0 0.796875 0.1875q0.359375 0.1875 0.578125 0.53125q0.234375 0.34375 0.359375 0.859375q0.125 0.5 0.125 1.34375q0 1.015625 -0.203125 1.640625q-0.203125 0.609375 -0.625 0.953125q-0.40625 0.328125 -1.03125 0.328125q-0.828125 0 -1.296875 -0.59375q-0.578125 -0.71875 -0.578125 -2.328125zm0.734375 0q0 1.40625 0.328125 1.875q0.328125 0.46875 0.8125 0.46875q0.484375 0 0.8125 -0.46875q0.328125 -0.46875 0.328125 -1.875q0 -1.40625 -0.328125 -1.875q-0.328125 -0.46875 -0.828125 -0.46875q-0.484375 0 -0.765625 0.40625q-0.359375 0.53125 -0.359375 1.9375zm3.7148438 0q0 -1.015625 0.203125 -1.625q0.21875 -0.625 0.625 -0.953125q0.421875 -0.34375 1.046875 -0.34375q0.453125 0 0.796875 0.1875q0.359375 0.1875 0.578125 0.53125q0.234375 0.34375 0.359375 0.859375q0.125 0.5 0.125 1.34375q0 1.015625 -0.203125 1.640625q-0.203125 0.609375 -0.625 0.953125q-0.40625 0.328125 -1.03125 0.328125q-0.828125 0 -1.296875 -0.59375q-0.578125 -0.71875 -0.578125 -2.328125zm0.734375 0q0 1.40625 0.328125 1.875q0.328125 0.46875 0.8125 0.46875q0.484375 0 0.8125 -0.46875q0.328125 -0.46875 0.328125 -1.875q0 -1.40625 -0.328125 -1.875q-0.328125 -0.46875 -0.828125 -0.46875q-0.484375 0 -0.765625 0.40625q-0.359375 0.53125 -0.359375 1.9375z" fill-rule="nonzero"/><path fill="#000000" fill-opacity="0.0" d="m322.29135 540.7979l42.015747 0l0 29.070862l-42.015747 0z" fill-rule="evenodd"/><path fill="#000000" d="m331.61948 554.6498q0 -1.015625 0.203125 -1.625q0.21875 -0.625 0.625 -0.953125q0.421875 -0.34375 1.046875 -0.34375q0.453125 0 0.796875 0.1875q0.359375 0.1875 0.578125 0.53125q0.234375 0.34375 0.359375 0.859375q0.125 0.5 0.125 1.34375q0 1.015625 -0.203125 1.640625q-0.203125 0.609375 -0.625 0.953125q-0.40625 0.328125 -1.03125 0.328125q-0.828125 0 -1.296875 -0.59375q-0.578125 -0.71875 -0.578125 -2.328125zm0.734375 0q0 1.40625 0.328125 1.875q0.328125 0.46875 0.8125 0.46875q0.484375 0 0.8125 -0.46875q0.328125 -0.46875 0.328125 -1.875q0 -1.40625 -0.328125 -1.875q-0.328125 -0.46875 -0.828125 -0.46875q-0.484375 0 -0.765625 0.40625q-0.359375 0.53125 -0.359375 1.9375zm4.8085938 -0.28125q-0.4375 -0.15625 -0.65625 -0.453125q-0.203125 -0.296875 -0.203125 -0.71875q0 -0.625 0.4375 -1.046875q0.453125 -0.421875 1.203125 -0.421875q0.75 0 1.203125 0.4375q0.453125 0.4375 0.453125 1.0625q0 0.390625 -0.203125 0.6875q-0.203125 0.296875 -0.640625 0.453125q0.53125 0.171875 0.796875 0.5625q0.28125 0.375 0.28125 0.90625q0 0.734375 -0.515625 1.234375q-0.515625 0.5 -1.359375 0.5q-0.859375 0 -1.375 -0.5q-0.515625 -0.5 -0.515625 -1.25q0 -0.5625 0.28125 -0.9375q0.28125 -0.375 0.8125 -0.515625zm-0.140625 -1.1875q0 0.40625 0.25 0.671875q0.265625 0.25 0.6875 0.25q0.40625 0 0.65625 -0.25q0.265625 -0.265625 0.265625 -0.640625q0 -0.375 -0.265625 -0.640625q-0.265625 -0.265625 -0.671875 -0.265625q-0.390625 0 -0.65625 0.265625q-0.265625 0.25 -0.265625 0.609375zm-0.234375 2.640625q0 0.296875 0.140625 0.578125q0.140625 0.28125 0.421875 0.4375q0.28125 0.15625 0.609375 0.15625q0.5 0 0.828125 -0.3125q0.328125 -0.328125 0.328125 -0.828125q0 -0.515625 -0.34375 -0.84375q-0.328125 -0.328125 -0.828125 -0.328125q-0.5 0 -0.828125 0.328125q-0.328125 0.328125 -0.328125 0.8125zm4.1210938 -1.6875l0 -0.8125l0.8125 0l0 0.8125l-0.8125 0zm0 3.34375l0 -0.796875l0.8125 0l0 0.796875l-0.8125 0zm1.8320312 -2.828125q0 -1.015625 0.203125 -1.625q0.21875 -0.625 0.625 -0.953125q0.421875 -0.34375 1.046875 -0.34375q0.453125 0 0.796875 0.1875q0.359375 0.1875 0.578125 0.53125q0.234375 0.34375 0.359375 0.859375q0.125 0.5 0.125 1.34375q0 1.015625 -0.203125 1.640625q-0.203125 0.609375 -0.625 0.953125q-0.40625 0.328125 -1.03125 0.328125q-0.828125 0 -1.296875 -0.59375q-0.578125 -0.71875 -0.578125 -2.328125zm0.734375 0q0 1.40625 0.328125 1.875q0.328125 0.46875 0.8125 0.46875q0.484375 0 0.8125 -0.46875q0.328125 -0.46875 0.328125 -1.875q0 -1.40625 -0.328125 -1.875q-0.328125 -0.46875 -0.828125 -0.46875q-0.484375 0 -0.765625 0.40625q-0.359375 0.53125 -0.359375 1.9375zm3.7148438 0q0 -1.015625 0.203125 -1.625q0.21875 -0.625 0.625 -0.953125q0.421875 -0.34375 1.046875 -0.34375q0.453125 0 0.796875 0.1875q0.359375 0.1875 0.578125 0.53125q0.234375 0.34375 0.359375 0.859375q0.125 0.5 0.125 1.34375q0 1.015625 -0.203125 1.640625q-0.203125 0.609375 -0.625 0.953125q-0.40625 0.328125 -1.03125 0.328125q-0.828125 0 -1.296875 -0.59375q-0.578125 -0.71875 -0.578125 -2.328125zm0.734375 0q0 1.40625 0.328125 1.875q0.328125 0.46875 0.8125 0.46875q0.484375 0 0.8125 -0.46875q0.328125 -0.46875 0.328125 -1.875q0 -1.40625 -0.328125 -1.875q-0.328125 -0.46875 -0.828125 -0.46875q-0.484375 0 -0.765625 0.40625q-0.359375 0.53125 -0.359375 1.9375z" fill-rule="nonzero"/><path fill="#000000" fill-opacity="0.0" d="m346.7362 540.7979l42.015778 0l0 29.070862l-42.015778 0z" fill-rule="evenodd"/><path fill="#000000" d="m356.06433 554.6498q0 -1.015625 0.203125 -1.625q0.21875 -0.625 0.625 -0.953125q0.421875 -0.34375 1.046875 -0.34375q0.453125 0 0.796875 0.1875q0.359375 0.1875 0.578125 0.53125q0.234375 0.34375 0.359375 0.859375q0.125 0.5 0.125 1.34375q0 1.015625 -0.203125 1.640625q-0.203125 0.609375 -0.625 0.953125q-0.40625 0.328125 -1.03125 0.328125q-0.828125 0 -1.296875 -0.59375q-0.578125 -0.71875 -0.578125 -2.328125zm0.734375 0q0 1.40625 0.328125 1.875q0.328125 0.46875 0.8125 0.46875q0.484375 0 0.8125 -0.46875q0.328125 -0.46875 0.328125 -1.875q0 -1.40625 -0.328125 -1.875q-0.328125 -0.46875 -0.828125 -0.46875q-0.484375 0 -0.765625 0.40625q-0.359375 0.53125 -0.359375 1.9375zm3.8242188 1.5l0.671875 -0.0625q0.09375 0.484375 0.328125 0.703125q0.25 0.203125 0.625 0.203125q0.328125 0 0.5625 -0.140625q0.25 -0.15625 0.40625 -0.40625q0.15625 -0.25 0.265625 -0.671875q0.109375 -0.421875 0.109375 -0.859375q0 -0.046875 -0.015625 -0.140625q-0.203125 0.34375 -0.578125 0.5625q-0.359375 0.203125 -0.78125 0.203125q-0.71875 0 -1.21875 -0.515625q-0.484375 -0.515625 -0.484375 -1.359375q0 -0.875 0.515625 -1.40625q0.515625 -0.53125 1.296875 -0.53125q0.546875 0 1.015625 0.296875q0.46875 0.296875 0.703125 0.859375q0.234375 0.5625 0.234375 1.609375q0 1.09375 -0.234375 1.75q-0.234375 0.65625 -0.703125 1.0q-0.46875 0.328125 -1.109375 0.328125q-0.671875 0 -1.09375 -0.375q-0.421875 -0.375 -0.515625 -1.046875zm2.875 -2.53125q0 -0.59375 -0.328125 -0.953125q-0.3125 -0.359375 -0.765625 -0.359375q-0.46875 0 -0.8125 0.390625q-0.34375 0.375 -0.34375 0.984375q0 0.546875 0.328125 0.890625q0.328125 0.34375 0.8125 0.34375q0.484375 0 0.796875 -0.34375q0.3125 -0.34375 0.3125 -0.953125zm1.8554688 0.515625l0 -0.8125l0.8125 0l0 0.8125l-0.8125 0zm0 3.34375l0 -0.796875l0.8125 0l0 0.796875l-0.8125 0zm1.8320312 -2.828125q0 -1.015625 0.203125 -1.625q0.21875 -0.625 0.625 -0.953125q0.421875 -0.34375 1.046875 -0.34375q0.453125 0 0.796875 0.1875q0.359375 0.1875 0.578125 0.53125q0.234375 0.34375 0.359375 0.859375q0.125 0.5 0.125 1.34375q0 1.015625 -0.203125 1.640625q-0.203125 0.609375 -0.625 0.953125q-0.40625 0.328125 -1.03125 0.328125q-0.828125 0 -1.296875 -0.59375q-0.578125 -0.71875 -0.578125 -2.328125zm0.734375 0q0 1.40625 0.328125 1.875q0.328125 0.46875 0.8125 0.46875q0.484375 0 0.8125 -0.46875q0.328125 -0.46875 0.328125 -1.875q0 -1.40625 -0.328125 -1.875q-0.328125 -0.46875 -0.828125 -0.46875q-0.484375 0 -0.765625 0.40625q-0.359375 0.53125 -0.359375 1.9375zm3.7148438 0q0 -1.015625 0.203125 -1.625q0.21875 -0.625 0.625 -0.953125q0.421875 -0.34375 1.046875 -0.34375q0.453125 0 0.796875 0.1875q0.359375 0.1875 0.578125 0.53125q0.234375 0.34375 0.359375 0.859375q0.125 0.5 0.125 1.34375q0 1.015625 -0.203125 1.640625q-0.203125 0.609375 -0.625 0.953125q-0.40625 0.328125 -1.03125 0.328125q-0.828125 0 -1.296875 -0.59375q-0.578125 -0.71875 -0.578125 -2.328125zm0.734375 0q0 1.40625 0.328125 1.875q0.328125 0.46875 0.8125 0.46875q0.484375 0 0.8125 -0.46875q0.328125 -0.46875 0.328125 -1.875q0 -1.40625 -0.328125 -1.875q-0.328125 -0.46875 -0.828125 -0.46875q-0.484375 0 -0.765625 0.40625q-0.359375 0.53125 -0.359375 1.9375z" fill-rule="nonzero"/><path fill="#000000" fill-opacity="0.0" d="m368.8714 540.7979l42.015747 0l0 29.070862l-42.015747 0z" fill-rule="evenodd"/><path fill="#000000" d="m380.85577 557.4779l-0.703125 0l0 -4.484375q-0.25 0.25 -0.671875 0.5q-0.40625 0.234375 -0.734375 0.34375l0 -0.671875q0.59375 -0.28125 1.03125 -0.671875q0.4375 -0.390625 0.625 -0.765625l0.453125 0l0 5.75zm1.7929688 -2.828125q0 -1.015625 0.203125 -1.625q0.21875 -0.625 0.625 -0.953125q0.421875 -0.34375 1.046875 -0.34375q0.453125 0 0.796875 0.1875q0.359375 0.1875 0.578125 0.53125q0.234375 0.34375 0.359375 0.859375q0.125 0.5 0.125 1.34375q0 1.015625 -0.203125 1.640625q-0.203125 0.609375 -0.625 0.953125q-0.40625 0.328125 -1.03125 0.328125q-0.828125 0 -1.296875 -0.59375q-0.578125 -0.71875 -0.578125 -2.328125zm0.734375 0q0 1.40625 0.328125 1.875q0.328125 0.46875 0.8125 0.46875q0.484375 0 0.8125 -0.46875q0.328125 -0.46875 0.328125 -1.875q0 -1.40625 -0.328125 -1.875q-0.328125 -0.46875 -0.828125 -0.46875q-0.484375 0 -0.765625 0.40625q-0.359375 0.53125 -0.359375 1.9375zm4.1054688 -0.515625l0 -0.8125l0.8125 0l0 0.8125l-0.8125 0zm0 3.34375l0 -0.796875l0.8125 0l0 0.796875l-0.8125 0zm1.8320312 -2.828125q0 -1.015625 0.203125 -1.625q0.21875 -0.625 0.625 -0.953125q0.421875 -0.34375 1.046875 -0.34375q0.453125 0 0.796875 0.1875q0.359375 0.1875 0.578125 0.53125q0.234375 0.34375 0.359375 0.859375q0.125 0.5 0.125 1.34375q0 1.015625 -0.203125 1.640625q-0.203125 0.609375 -0.625 0.953125q-0.40625 0.328125 -1.03125 0.328125q-0.828125 0 -1.296875 -0.59375q-0.578125 -0.71875 -0.578125 -2.328125zm0.734375 0q0 1.40625 0.328125 1.875q0.328125 0.46875 0.8125 0.46875q0.484375 0 0.8125 -0.46875q0.328125 -0.46875 0.328125 -1.875q0 -1.40625 -0.328125 -1.875q-0.328125 -0.46875 -0.828125 -0.46875q-0.484375 0 -0.765625 0.40625q-0.359375 0.53125 -0.359375 1.9375zm3.7148438 0q0 -1.015625 0.203125 -1.625q0.21875 -0.625 0.625 -0.953125q0.421875 -0.34375 1.046875 -0.34375q0.453125 0 0.796875 0.1875q0.359375 0.1875 0.578125 0.53125q0.234375 0.34375 0.359375 0.859375q0.125 0.5 0.125 1.34375q0 1.015625 -0.203125 1.640625q-0.203125 0.609375 -0.625 0.953125q-0.40625 0.328125 -1.03125 0.328125q-0.828125 0 -1.296875 -0.59375q-0.578125 -0.71875 -0.578125 -2.328125zm0.734375 0q0 1.40625 0.328125 1.875q0.328125 0.46875 0.8125 0.46875q0.484375 0 0.8125 -0.46875q0.328125 -0.46875 0.328125 -1.875q0 -1.40625 -0.328125 -1.875q-0.328125 -0.46875 -0.828125 -0.46875q-0.484375 0 -0.765625 0.40625q-0.359375 0.53125 -0.359375 1.9375z" fill-rule="nonzero"/><path fill="#000000" fill-opacity="0.0" d="m391.4475 540.7979l42.015747 0l0 29.070862l-42.015747 0z" fill-rule="evenodd"/><path fill="#000000" d="m403.4319 557.4779l-0.703125 0l0 -4.484375q-0.25 0.25 -0.671875 0.5q-0.40625 0.234375 -0.734375 0.34375l0 -0.671875q0.59375 -0.28125 1.03125 -0.671875q0.4375 -0.390625 0.625 -0.765625l0.453125 0l0 5.75zm3.8554688 0l-0.703125 0l0 -4.484375q-0.25 0.25 -0.671875 0.5q-0.40625 0.234375 -0.734375 0.34375l0 -0.671875q0.59375 -0.28125 1.03125 -0.671875q0.4375 -0.390625 0.625 -0.765625l0.453125 0l0 5.75zm2.1835938 -3.34375l0 -0.8125l0.8125 0l0 0.8125l-0.8125 0zm0 3.34375l0 -0.796875l0.8125 0l0 0.796875l-0.8125 0zm1.8320312 -2.828125q0 -1.015625 0.203125 -1.625q0.21875 -0.625 0.625 -0.953125q0.421875 -0.34375 1.046875 -0.34375q0.453125 0 0.796875 0.1875q0.359375 0.1875 0.578125 0.53125q0.234375 0.34375 0.359375 0.859375q0.125 0.5 0.125 1.34375q0 1.015625 -0.203125 1.640625q-0.203125 0.609375 -0.625 0.953125q-0.40625 0.328125 -1.03125 0.328125q-0.828125 0 -1.296875 -0.59375q-0.578125 -0.71875 -0.578125 -2.328125zm0.734375 0q0 1.40625 0.328125 1.875q0.328125 0.46875 0.8125 0.46875q0.484375 0 0.8125 -0.46875q0.328125 -0.46875 0.328125 -1.875q0 -1.40625 -0.328125 -1.875q-0.328125 -0.46875 -0.828125 -0.46875q-0.484375 0 -0.765625 0.40625q-0.359375 0.53125 -0.359375 1.9375zm3.7148438 0q0 -1.015625 0.203125 -1.625q0.21875 -0.625 0.625 -0.953125q0.421875 -0.34375 1.046875 -0.34375q0.453125 0 0.796875 0.1875q0.359375 0.1875 0.578125 0.53125q0.234375 0.34375 0.359375 0.859375q0.125 0.5 0.125 1.34375q0 1.015625 -0.203125 1.640625q-0.203125 0.609375 -0.625 0.953125q-0.40625 0.328125 -1.03125 0.328125q-0.828125 0 -1.296875 -0.59375q-0.578125 -0.71875 -0.578125 -2.328125zm0.734375 0q0 1.40625 0.328125 1.875q0.328125 0.46875 0.8125 0.46875q0.484375 0 0.8125 -0.46875q0.328125 -0.46875 0.328125 -1.875q0 -1.40625 -0.328125 -1.875q-0.328125 -0.46875 -0.828125 -0.46875q-0.484375 0 -0.765625 0.40625q-0.359375 0.53125 -0.359375 1.9375z" fill-rule="nonzero"/><path fill="#000000" fill-opacity="0.0" d="m413.7349 540.7979l42.015778 0l0 29.070862l-42.015778 0z" fill-rule="evenodd"/><path fill="#000000" d="m425.71927 557.4779l-0.703125 0l0 -4.484375q-0.25 0.25 -0.671875 0.5q-0.40625 0.234375 -0.734375 0.34375l0 -0.671875q0.59375 -0.28125 1.03125 -0.671875q0.4375 -0.390625 0.625 -0.765625l0.453125 0l0 5.75zm5.4960938 -0.671875l0 0.671875l-3.78125 0q-0.015625 -0.25 0.078125 -0.484375q0.140625 -0.390625 0.453125 -0.765625q0.328125 -0.375 0.921875 -0.875q0.9375 -0.765625 1.265625 -1.203125q0.328125 -0.453125 0.328125 -0.84375q0 -0.421875 -0.296875 -0.703125q-0.296875 -0.296875 -0.78125 -0.296875q-0.5 0 -0.8125 0.3125q-0.296875 0.296875 -0.3125 0.84375l-0.71875 -0.078125q0.078125 -0.8125 0.5625 -1.234375q0.484375 -0.421875 1.296875 -0.421875q0.828125 0 1.296875 0.453125q0.484375 0.453125 0.484375 1.140625q0 0.34375 -0.140625 0.671875q-0.140625 0.328125 -0.46875 0.703125q-0.3125 0.359375 -1.078125 1.0q-0.625 0.53125 -0.8125 0.71875q-0.171875 0.1875 -0.296875 0.390625l2.8125 0zm1.1367188 -2.671875l0 -0.8125l0.8125 0l0 0.8125l-0.8125 0zm0 3.34375l0 -0.796875l0.8125 0l0 0.796875l-0.8125 0zm1.8320312 -2.828125q0 -1.015625 0.203125 -1.625q0.21875 -0.625 0.625 -0.953125q0.421875 -0.34375 1.046875 -0.34375q0.453125 0 0.796875 0.1875q0.359375 0.1875 0.578125 0.53125q0.234375 0.34375 0.359375 0.859375q0.125 0.5 0.125 1.34375q0 1.015625 -0.203125 1.640625q-0.203125 0.609375 -0.625 0.953125q-0.40625 0.328125 -1.03125 0.328125q-0.828125 0 -1.296875 -0.59375q-0.578125 -0.71875 -0.578125 -2.328125zm0.734375 0q0 1.40625 0.328125 1.875q0.328125 0.46875 0.8125 0.46875q0.484375 0 0.8125 -0.46875q0.328125 -0.46875 0.328125 -1.875q0 -1.40625 -0.328125 -1.875q-0.328125 -0.46875 -0.828125 -0.46875q-0.484375 0 -0.765625 0.40625q-0.359375 0.53125 -0.359375 1.9375zm3.7148438 0q0 -1.015625 0.203125 -1.625q0.21875 -0.625 0.625 -0.953125q0.421875 -0.34375 1.046875 -0.34375q0.453125 0 0.796875 0.1875q0.359375 0.1875 0.578125 0.53125q0.234375 0.34375 0.359375 0.859375q0.125 0.5 0.125 1.34375q0 1.015625 -0.203125 1.640625q-0.203125 0.609375 -0.625 0.953125q-0.40625 0.328125 -1.03125 0.328125q-0.828125 0 -1.296875 -0.59375q-0.578125 -0.71875 -0.578125 -2.328125zm0.734375 0q0 1.40625 0.328125 1.875q0.328125 0.46875 0.8125 0.46875q0.484375 0 0.8125 -0.46875q0.328125 -0.46875 0.328125 -1.875q0 -1.40625 -0.328125 -1.875q-0.328125 -0.46875 -0.828125 -0.46875q-0.484375 0 -0.765625 0.40625q-0.359375 0.53125 -0.359375 1.9375z" fill-rule="nonzero"/><path fill="#000000" fill-opacity="0.0" d="m438.17978 540.7979l42.015747 0l0 29.070862l-42.015747 0z" fill-rule="evenodd"/><path fill="#000000" d="m450.16415 557.4779l-0.703125 0l0 -4.484375q-0.25 0.25 -0.671875 0.5q-0.40625 0.234375 -0.734375 0.34375l0 -0.671875q0.59375 -0.28125 1.03125 -0.671875q0.4375 -0.390625 0.625 -0.765625l0.453125 0l0 5.75zm1.8085938 -1.515625l0.703125 -0.09375q0.109375 0.59375 0.40625 0.859375q0.296875 0.265625 0.703125 0.265625q0.5 0 0.84375 -0.34375q0.34375 -0.34375 0.34375 -0.84375q0 -0.484375 -0.328125 -0.796875q-0.3125 -0.328125 -0.796875 -0.328125q-0.203125 0 -0.5 0.078125l0.078125 -0.609375q0.078125 0 0.125 0q0.4375 0 0.796875 -0.234375q0.359375 -0.234375 0.359375 -0.71875q0 -0.390625 -0.265625 -0.640625q-0.25 -0.25 -0.671875 -0.25q-0.40625 0 -0.6875 0.265625q-0.265625 0.25 -0.34375 0.765625l-0.703125 -0.125q0.125 -0.703125 0.578125 -1.09375q0.46875 -0.390625 1.140625 -0.390625q0.46875 0 0.859375 0.203125q0.40625 0.203125 0.609375 0.546875q0.21875 0.34375 0.21875 0.734375q0 0.375 -0.203125 0.6875q-0.203125 0.296875 -0.59375 0.46875q0.515625 0.125 0.796875 0.5q0.28125 0.359375 0.28125 0.921875q0 0.75 -0.546875 1.28125q-0.546875 0.515625 -1.390625 0.515625q-0.75 0 -1.25 -0.453125q-0.5 -0.453125 -0.5625 -1.171875zm4.8242188 -1.828125l0 -0.8125l0.8125 0l0 0.8125l-0.8125 0zm0 3.34375l0 -0.796875l0.8125 0l0 0.796875l-0.8125 0zm1.8320312 -2.828125q0 -1.015625 0.203125 -1.625q0.21875 -0.625 0.625 -0.953125q0.421875 -0.34375 1.046875 -0.34375q0.453125 0 0.796875 0.1875q0.359375 0.1875 0.578125 0.53125q0.234375 0.34375 0.359375 0.859375q0.125 0.5 0.125 1.34375q0 1.015625 -0.203125 1.640625q-0.203125 0.609375 -0.625 0.953125q-0.40625 0.328125 -1.03125 0.328125q-0.828125 0 -1.296875 -0.59375q-0.578125 -0.71875 -0.578125 -2.328125zm0.734375 0q0 1.40625 0.328125 1.875q0.328125 0.46875 0.8125 0.46875q0.484375 0 0.8125 -0.46875q0.328125 -0.46875 0.328125 -1.875q0 -1.40625 -0.328125 -1.875q-0.328125 -0.46875 -0.828125 -0.46875q-0.484375 0 -0.765625 0.40625q-0.359375 0.53125 -0.359375 1.9375zm3.7148438 0q0 -1.015625 0.203125 -1.625q0.21875 -0.625 0.625 -0.953125q0.421875 -0.34375 1.046875 -0.34375q0.453125 0 0.796875 0.1875q0.359375 0.1875 0.578125 0.53125q0.234375 0.34375 0.359375 0.859375q0.125 0.5 0.125 1.34375q0 1.015625 -0.203125 1.640625q-0.203125 0.609375 -0.625 0.953125q-0.40625 0.328125 -1.03125 0.328125q-0.828125 0 -1.296875 -0.59375q-0.578125 -0.71875 -0.578125 -2.328125zm0.734375 0q0 1.40625 0.328125 1.875q0.328125 0.46875 0.8125 0.46875q0.484375 0 0.8125 -0.46875q0.328125 -0.46875 0.328125 -1.875q0 -1.40625 -0.328125 -1.875q-0.328125 -0.46875 -0.828125 -0.46875q-0.484375 0 -0.765625 0.40625q-0.359375 0.53125 -0.359375 1.9375z" fill-rule="nonzero"/><path fill="#000000" fill-opacity="0.0" d="m460.31497 540.7979l42.015747 0l0 29.070862l-42.015747 0z" fill-rule="evenodd"/><path fill="#000000" d="m472.29935 557.4779l-0.703125 0l0 -4.484375q-0.25 0.25 -0.671875 0.5q-0.40625 0.234375 -0.734375 0.34375l0 -0.671875q0.59375 -0.28125 1.03125 -0.671875q0.4375 -0.390625 0.625 -0.765625l0.453125 0l0 5.75zm4.0585938 0l0 -1.375l-2.484375 0l0 -0.640625l2.609375 -3.71875l0.578125 0l0 3.71875l0.765625 0l0 0.640625l-0.765625 0l0 1.375l-0.703125 0zm0 -2.015625l0 -2.578125l-1.796875 2.578125l1.796875 0zm2.5742188 -1.328125l0 -0.8125l0.8125 0l0 0.8125l-0.8125 0zm0 3.34375l0 -0.796875l0.8125 0l0 0.796875l-0.8125 0zm1.8320312 -2.828125q0 -1.015625 0.203125 -1.625q0.21875 -0.625 0.625 -0.953125q0.421875 -0.34375 1.046875 -0.34375q0.453125 0 0.796875 0.1875q0.359375 0.1875 0.578125 0.53125q0.234375 0.34375 0.359375 0.859375q0.125 0.5 0.125 1.34375q0 1.015625 -0.203125 1.640625q-0.203125 0.609375 -0.625 0.953125q-0.40625 0.328125 -1.03125 0.328125q-0.828125 0 -1.296875 -0.59375q-0.578125 -0.71875 -0.578125 -2.328125zm0.734375 0q0 1.40625 0.328125 1.875q0.328125 0.46875 0.8125 0.46875q0.484375 0 0.8125 -0.46875q0.328125 -0.46875 0.328125 -1.875q0 -1.40625 -0.328125 -1.875q-0.328125 -0.46875 -0.828125 -0.46875q-0.484375 0 -0.765625 0.40625q-0.359375 0.53125 -0.359375 1.9375zm3.7148438 0q0 -1.015625 0.203125 -1.625q0.21875 -0.625 0.625 -0.953125q0.421875 -0.34375 1.046875 -0.34375q0.453125 0 0.796875 0.1875q0.359375 0.1875 0.578125 0.53125q0.234375 0.34375 0.359375 0.859375q0.125 0.5 0.125 1.34375q0 1.015625 -0.203125 1.640625q-0.203125 0.609375 -0.625 0.953125q-0.40625 0.328125 -1.03125 0.328125q-0.828125 0 -1.296875 -0.59375q-0.578125 -0.71875 -0.578125 -2.328125zm0.734375 0q0 1.40625 0.328125 1.875q0.328125 0.46875 0.8125 0.46875q0.484375 0 0.8125 -0.46875q0.328125 -0.46875 0.328125 -1.875q0 -1.40625 -0.328125 -1.875q-0.328125 -0.46875 -0.828125 -0.46875q-0.484375 0 -0.765625 0.40625q-0.359375 0.53125 -0.359375 1.9375z" fill-rule="nonzero"/><path fill="#000000" fill-opacity="0.0" d="m482.89108 540.7979l42.015717 0l0 29.070862l-42.015717 0z" fill-rule="evenodd"/><path fill="#000000" d="m494.87546 557.4779l-0.703125 0l0 -4.484375q-0.25 0.25 -0.671875 0.5q-0.40625 0.234375 -0.734375 0.34375l0 -0.671875q0.59375 -0.28125 1.03125 -0.671875q0.4375 -0.390625 0.625 -0.765625l0.453125 0l0 5.75zm1.7929688 -1.5l0.75 -0.0625q0.078125 0.53125 0.375 0.8125q0.296875 0.265625 0.71875 0.265625q0.515625 0 0.859375 -0.375q0.359375 -0.390625 0.359375 -1.015625q0 -0.609375 -0.34375 -0.953125q-0.34375 -0.34375 -0.890625 -0.34375q-0.328125 0 -0.609375 0.15625q-0.265625 0.140625 -0.421875 0.390625l-0.671875 -0.078125l0.5625 -2.953125l2.84375 0l0 0.671875l-2.28125 0l-0.3125 1.546875q0.515625 -0.359375 1.078125 -0.359375q0.75 0 1.265625 0.515625q0.515625 0.515625 0.515625 1.34375q0 0.765625 -0.453125 1.34375q-0.546875 0.6875 -1.5 0.6875q-0.78125 0 -1.28125 -0.4375q-0.484375 -0.4375 -0.5625 -1.15625zm4.8398438 -1.84375l0 -0.8125l0.8125 0l0 0.8125l-0.8125 0zm0 3.34375l0 -0.796875l0.8125 0l0 0.796875l-0.8125 0zm1.8320312 -2.828125q0 -1.015625 0.203125 -1.625q0.21875 -0.625 0.625 -0.953125q0.421875 -0.34375 1.046875 -0.34375q0.453125 0 0.796875 0.1875q0.359375 0.1875 0.578125 0.53125q0.234375 0.34375 0.359375 0.859375q0.125 0.5 0.125 1.34375q0 1.015625 -0.203125 1.640625q-0.203125 0.609375 -0.625 0.953125q-0.40625 0.328125 -1.03125 0.328125q-0.828125 0 -1.296875 -0.59375q-0.578125 -0.71875 -0.578125 -2.328125zm0.734375 0q0 1.40625 0.328125 1.875q0.328125 0.46875 0.8125 0.46875q0.484375 0 0.8125 -0.46875q0.328125 -0.46875 0.328125 -1.875q0 -1.40625 -0.328125 -1.875q-0.328125 -0.46875 -0.828125 -0.46875q-0.484375 0 -0.765625 0.40625q-0.359375 0.53125 -0.359375 1.9375zm3.7148438 0q0 -1.015625 0.203125 -1.625q0.21875 -0.625 0.625 -0.953125q0.421875 -0.34375 1.046875 -0.34375q0.453125 0 0.796875 0.1875q0.359375 0.1875 0.578125 0.53125q0.234375 0.34375 0.359375 0.859375q0.125 0.5 0.125 1.34375q0 1.015625 -0.203125 1.640625q-0.203125 0.609375 -0.625 0.953125q-0.40625 0.328125 -1.03125 0.328125q-0.828125 0 -1.296875 -0.59375q-0.578125 -0.71875 -0.578125 -2.328125zm0.734375 0q0 1.40625 0.328125 1.875q0.328125 0.46875 0.8125 0.46875q0.484375 0 0.8125 -0.46875q0.328125 -0.46875 0.328125 -1.875q0 -1.40625 -0.328125 -1.875q-0.328125 -0.46875 -0.828125 -0.46875q-0.484375 0 -0.765625 0.40625q-0.359375 0.53125 -0.359375 1.9375z" fill-rule="nonzero"/><path fill="#000000" fill-opacity="0.0" d="m506.74802 540.7979l42.015778 0l0 29.070862l-42.015778 0z" fill-rule="evenodd"/><path fill="#000000" d="m518.7324 557.4779l-0.703125 0l0 -4.484375q-0.25 0.25 -0.671875 0.5q-0.40625 0.234375 -0.734375 0.34375l0 -0.671875q0.59375 -0.28125 1.03125 -0.671875q0.4375 -0.390625 0.625 -0.765625l0.453125 0l0 5.75zm5.4492188 -4.328125l-0.703125 0.0625q-0.09375 -0.421875 -0.265625 -0.609375q-0.28125 -0.296875 -0.703125 -0.296875q-0.328125 0 -0.59375 0.1875q-0.328125 0.234375 -0.515625 0.703125q-0.1875 0.46875 -0.203125 1.328125q0.25 -0.390625 0.609375 -0.578125q0.375 -0.1875 0.78125 -0.1875q0.703125 0 1.1875 0.515625q0.5 0.515625 0.5 1.34375q0 0.53125 -0.234375 1.0q-0.21875 0.46875 -0.625 0.71875q-0.40625 0.234375 -0.921875 0.234375q-0.890625 0 -1.453125 -0.640625q-0.546875 -0.65625 -0.546875 -2.140625q0 -1.65625 0.625 -2.40625q0.53125 -0.65625 1.4375 -0.65625q0.671875 0 1.09375 0.375q0.4375 0.375 0.53125 1.046875zm-2.875 2.46875q0 0.359375 0.15625 0.703125q0.15625 0.328125 0.421875 0.5q0.28125 0.171875 0.59375 0.171875q0.4375 0 0.75 -0.359375q0.328125 -0.359375 0.328125 -0.96875q0 -0.59375 -0.3125 -0.9375q-0.3125 -0.34375 -0.796875 -0.34375q-0.46875 0 -0.8125 0.34375q-0.328125 0.34375 -0.328125 0.890625zm4.0585938 -1.484375l0 -0.8125l0.8125 0l0 0.8125l-0.8125 0zm0 3.34375l0 -0.796875l0.8125 0l0 0.796875l-0.8125 0zm1.8320312 -2.828125q0 -1.015625 0.203125 -1.625q0.21875 -0.625 0.625 -0.953125q0.421875 -0.34375 1.046875 -0.34375q0.453125 0 0.796875 0.1875q0.359375 0.1875 0.578125 0.53125q0.234375 0.34375 0.359375 0.859375q0.125 0.5 0.125 1.34375q0 1.015625 -0.203125 1.640625q-0.203125 0.609375 -0.625 0.953125q-0.40625 0.328125 -1.03125 0.328125q-0.828125 0 -1.296875 -0.59375q-0.578125 -0.71875 -0.578125 -2.328125zm0.734375 0q0 1.40625 0.328125 1.875q0.328125 0.46875 0.8125 0.46875q0.484375 0 0.8125 -0.46875q0.328125 -0.46875 0.328125 -1.875q0 -1.40625 -0.328125 -1.875q-0.328125 -0.46875 -0.828125 -0.46875q-0.484375 0 -0.765625 0.40625q-0.359375 0.53125 -0.359375 1.9375zm3.7148438 0q0 -1.015625 0.203125 -1.625q0.21875 -0.625 0.625 -0.953125q0.421875 -0.34375 1.046875 -0.34375q0.453125 0 0.796875 0.1875q0.359375 0.1875 0.578125 0.53125q0.234375 0.34375 0.359375 0.859375q0.125 0.5 0.125 1.34375q0 1.015625 -0.203125 1.640625q-0.203125 0.609375 -0.625 0.953125q-0.40625 0.328125 -1.03125 0.328125q-0.828125 0 -1.296875 -0.59375q-0.578125 -0.71875 -0.578125 -2.328125zm0.734375 0q0 1.40625 0.328125 1.875q0.328125 0.46875 0.8125 0.46875q0.484375 0 0.8125 -0.46875q0.328125 -0.46875 0.328125 -1.875q0 -1.40625 -0.328125 -1.875q-0.328125 -0.46875 -0.828125 -0.46875q-0.484375 0 -0.765625 0.40625q-0.359375 0.53125 -0.359375 1.9375z" fill-rule="nonzero"/><path fill="#000000" fill-opacity="0.0" d="m531.21655 540.7979l42.015747 0l0 29.070862l-42.015747 0z" fill-rule="evenodd"/><path fill="#000000" d="m543.2009 557.4779l-0.703125 0l0 -4.484375q-0.25 0.25 -0.671875 0.5q-0.40625 0.234375 -0.734375 0.34375l0 -0.671875q0.59375 -0.28125 1.03125 -0.671875q0.4375 -0.390625 0.625 -0.765625l0.453125 0l0 5.75zm1.8398438 -4.984375l0 -0.671875l3.71875 0l0 0.546875q-0.546875 0.578125 -1.09375 1.546875q-0.53125 0.96875 -0.828125 1.984375q-0.203125 0.71875 -0.265625 1.578125l-0.71875 0q0 -0.671875 0.25 -1.625q0.265625 -0.96875 0.734375 -1.859375q0.484375 -0.890625 1.015625 -1.5l-2.8125 0zm4.7929688 1.640625l0 -0.8125l0.8125 0l0 0.8125l-0.8125 0zm0 3.34375l0 -0.796875l0.8125 0l0 0.796875l-0.8125 0zm1.8320312 -2.828125q0 -1.015625 0.203125 -1.625q0.21875 -0.625 0.625 -0.953125q0.421875 -0.34375 1.046875 -0.34375q0.453125 0 0.796875 0.1875q0.359375 0.1875 0.578125 0.53125q0.234375 0.34375 0.359375 0.859375q0.125 0.5 0.125 1.34375q0 1.015625 -0.203125 1.640625q-0.203125 0.609375 -0.625 0.953125q-0.40625 0.328125 -1.03125 0.328125q-0.828125 0 -1.296875 -0.59375q-0.578125 -0.71875 -0.578125 -2.328125zm0.734375 0q0 1.40625 0.328125 1.875q0.328125 0.46875 0.8125 0.46875q0.484375 0 0.8125 -0.46875q0.328125 -0.46875 0.328125 -1.875q0 -1.40625 -0.328125 -1.875q-0.328125 -0.46875 -0.828125 -0.46875q-0.484375 0 -0.765625 0.40625q-0.359375 0.53125 -0.359375 1.9375zm3.7148438 0q0 -1.015625 0.203125 -1.625q0.21875 -0.625 0.625 -0.953125q0.421875 -0.34375 1.046875 -0.34375q0.453125 0 0.796875 0.1875q0.359375 0.1875 0.578125 0.53125q0.234375 0.34375 0.359375 0.859375q0.125 0.5 0.125 1.34375q0 1.015625 -0.203125 1.640625q-0.203125 0.609375 -0.625 0.953125q-0.40625 0.328125 -1.03125 0.328125q-0.828125 0 -1.296875 -0.59375q-0.578125 -0.71875 -0.578125 -2.328125zm0.734375 0q0 1.40625 0.328125 1.875q0.328125 0.46875 0.8125 0.46875q0.484375 0 0.8125 -0.46875q0.328125 -0.46875 0.328125 -1.875q0 -1.40625 -0.328125 -1.875q-0.328125 -0.46875 -0.828125 -0.46875q-0.484375 0 -0.765625 0.40625q-0.359375 0.53125 -0.359375 1.9375z" fill-rule="nonzero"/><path fill="#000000" fill-opacity="0.0" d="m553.3517 540.7979l42.015747 0l0 29.070862l-42.015747 0z" fill-rule="evenodd"/><path fill="#000000" d="m565.33606 557.4779l-0.703125 0l0 -4.484375q-0.25 0.25 -0.671875 0.5q-0.40625 0.234375 -0.734375 0.34375l0 -0.671875q0.59375 -0.28125 1.03125 -0.671875q0.4375 -0.390625 0.625 -0.765625l0.453125 0l0 5.75zm2.8867188 -3.109375q-0.4375 -0.15625 -0.65625 -0.453125q-0.203125 -0.296875 -0.203125 -0.71875q0 -0.625 0.4375 -1.046875q0.453125 -0.421875 1.203125 -0.421875q0.75 0 1.203125 0.4375q0.453125 0.4375 0.453125 1.0625q0 0.390625 -0.203125 0.6875q-0.203125 0.296875 -0.640625 0.453125q0.53125 0.171875 0.796875 0.5625q0.28125 0.375 0.28125 0.90625q0 0.734375 -0.515625 1.234375q-0.515625 0.5 -1.359375 0.5q-0.859375 0 -1.375 -0.5q-0.515625 -0.5 -0.515625 -1.25q0 -0.5625 0.28125 -0.9375q0.28125 -0.375 0.8125 -0.515625zm-0.140625 -1.1875q0 0.40625 0.25 0.671875q0.265625 0.25 0.6875 0.25q0.40625 0 0.65625 -0.25q0.265625 -0.265625 0.265625 -0.640625q0 -0.375 -0.265625 -0.640625q-0.265625 -0.265625 -0.671875 -0.265625q-0.390625 0 -0.65625 0.265625q-0.265625 0.25 -0.265625 0.609375zm-0.234375 2.640625q0 0.296875 0.140625 0.578125q0.140625 0.28125 0.421875 0.4375q0.28125 0.15625 0.609375 0.15625q0.5 0 0.828125 -0.3125q0.328125 -0.328125 0.328125 -0.828125q0 -0.515625 -0.34375 -0.84375q-0.328125 -0.328125 -0.828125 -0.328125q-0.5 0 -0.828125 0.328125q-0.328125 0.328125 -0.328125 0.8125zm4.1210938 -1.6875l0 -0.8125l0.8125 0l0 0.8125l-0.8125 0zm0 3.34375l0 -0.796875l0.8125 0l0 0.796875l-0.8125 0zm1.8320312 -2.828125q0 -1.015625 0.203125 -1.625q0.21875 -0.625 0.625 -0.953125q0.421875 -0.34375 1.046875 -0.34375q0.453125 0 0.796875 0.1875q0.359375 0.1875 0.578125 0.53125q0.234375 0.34375 0.359375 0.859375q0.125 0.5 0.125 1.34375q0 1.015625 -0.203125 1.640625q-0.203125 0.609375 -0.625 0.953125q-0.40625 0.328125 -1.03125 0.328125q-0.828125 0 -1.296875 -0.59375q-0.578125 -0.71875 -0.578125 -2.328125zm0.734375 0q0 1.40625 0.328125 1.875q0.328125 0.46875 0.8125 0.46875q0.484375 0 0.8125 -0.46875q0.328125 -0.46875 0.328125 -1.875q0 -1.40625 -0.328125 -1.875q-0.328125 -0.46875 -0.828125 -0.46875q-0.484375 0 -0.765625 0.40625q-0.359375 0.53125 -0.359375 1.9375zm3.7148438 0q0 -1.015625 0.203125 -1.625q0.21875 -0.625 0.625 -0.953125q0.421875 -0.34375 1.046875 -0.34375q0.453125 0 0.796875 0.1875q0.359375 0.1875 0.578125 0.53125q0.234375 0.34375 0.359375 0.859375q0.125 0.5 0.125 1.34375q0 1.015625 -0.203125 1.640625q-0.203125 0.609375 -0.625 0.953125q-0.40625 0.328125 -1.03125 0.328125q-0.828125 0 -1.296875 -0.59375q-0.578125 -0.71875 -0.578125 -2.328125zm0.734375 0q0 1.40625 0.328125 1.875q0.328125 0.46875 0.8125 0.46875q0.484375 0 0.8125 -0.46875q0.328125 -0.46875 0.328125 -1.875q0 -1.40625 -0.328125 -1.875q-0.328125 -0.46875 -0.828125 -0.46875q-0.484375 0 -0.765625 0.40625q-0.359375 0.53125 -0.359375 1.9375z" fill-rule="nonzero"/><path fill="#000000" fill-opacity="0.0" d="m575.9278 540.7979l42.015747 0l0 29.070862l-42.015747 0z" fill-rule="evenodd"/><path fill="#000000" d="m587.9122 557.4779l-0.703125 0l0 -4.484375q-0.25 0.25 -0.671875 0.5q-0.40625 0.234375 -0.734375 0.34375l0 -0.671875q0.59375 -0.28125 1.03125 -0.671875q0.4375 -0.390625 0.625 -0.765625l0.453125 0l0 5.75zm1.9023438 -1.328125l0.671875 -0.0625q0.09375 0.484375 0.328125 0.703125q0.25 0.203125 0.625 0.203125q0.328125 0 0.5625 -0.140625q0.25 -0.15625 0.40625 -0.40625q0.15625 -0.25 0.265625 -0.671875q0.109375 -0.421875 0.109375 -0.859375q0 -0.046875 -0.015625 -0.140625q-0.203125 0.34375 -0.578125 0.5625q-0.359375 0.203125 -0.78125 0.203125q-0.71875 0 -1.21875 -0.515625q-0.484375 -0.515625 -0.484375 -1.359375q0 -0.875 0.515625 -1.40625q0.515625 -0.53125 1.296875 -0.53125q0.546875 0 1.015625 0.296875q0.46875 0.296875 0.703125 0.859375q0.234375 0.5625 0.234375 1.609375q0 1.09375 -0.234375 1.75q-0.234375 0.65625 -0.703125 1.0q-0.46875 0.328125 -1.109375 0.328125q-0.671875 0 -1.09375 -0.375q-0.421875 -0.375 -0.515625 -1.046875zm2.875 -2.53125q0 -0.59375 -0.328125 -0.953125q-0.3125 -0.359375 -0.765625 -0.359375q-0.46875 0 -0.8125 0.390625q-0.34375 0.375 -0.34375 0.984375q0 0.546875 0.328125 0.890625q0.328125 0.34375 0.8125 0.34375q0.484375 0 0.796875 -0.34375q0.3125 -0.34375 0.3125 -0.953125zm1.8554688 0.515625l0 -0.8125l0.8125 0l0 0.8125l-0.8125 0zm0 3.34375l0 -0.796875l0.8125 0l0 0.796875l-0.8125 0zm1.8320312 -2.828125q0 -1.015625 0.203125 -1.625q0.21875 -0.625 0.625 -0.953125q0.421875 -0.34375 1.046875 -0.34375q0.453125 0 0.796875 0.1875q0.359375 0.1875 0.578125 0.53125q0.234375 0.34375 0.359375 0.859375q0.125 0.5 0.125 1.34375q0 1.015625 -0.203125 1.640625q-0.203125 0.609375 -0.625 0.953125q-0.40625 0.328125 -1.03125 0.328125q-0.828125 0 -1.296875 -0.59375q-0.578125 -0.71875 -0.578125 -2.328125zm0.734375 0q0 1.40625 0.328125 1.875q0.328125 0.46875 0.8125 0.46875q0.484375 0 0.8125 -0.46875q0.328125 -0.46875 0.328125 -1.875q0 -1.40625 -0.328125 -1.875q-0.328125 -0.46875 -0.828125 -0.46875q-0.484375 0 -0.765625 0.40625q-0.359375 0.53125 -0.359375 1.9375zm3.7148438 0q0 -1.015625 0.203125 -1.625q0.21875 -0.625 0.625 -0.953125q0.421875 -0.34375 1.046875 -0.34375q0.453125 0 0.796875 0.1875q0.359375 0.1875 0.578125 0.53125q0.234375 0.34375 0.359375 0.859375q0.125 0.5 0.125 1.34375q0 1.015625 -0.203125 1.640625q-0.203125 0.609375 -0.625 0.953125q-0.40625 0.328125 -1.03125 0.328125q-0.828125 0 -1.296875 -0.59375q-0.578125 -0.71875 -0.578125 -2.328125zm0.734375 0q0 1.40625 0.328125 1.875q0.328125 0.46875 0.8125 0.46875q0.484375 0 0.8125 -0.46875q0.328125 -0.46875 0.328125 -1.875q0 -1.40625 -0.328125 -1.875q-0.328125 -0.46875 -0.828125 -0.46875q-0.484375 0 -0.765625 0.40625q-0.359375 0.53125 -0.359375 1.9375z" fill-rule="nonzero"/><path fill="#000000" fill-opacity="0.0" d="m599.36743 540.7979l42.015747 0l0 29.070862l-42.015747 0z" fill-rule="evenodd"/><path fill="#000000" d="m612.3987 556.806l0 0.671875l-3.78125 0q-0.015625 -0.25 0.078125 -0.484375q0.140625 -0.390625 0.453125 -0.765625q0.328125 -0.375 0.921875 -0.875q0.9375 -0.765625 1.265625 -1.203125q0.328125 -0.453125 0.328125 -0.84375q0 -0.421875 -0.296875 -0.703125q-0.296875 -0.296875 -0.78125 -0.296875q-0.5 0 -0.8125 0.3125q-0.296875 0.296875 -0.3125 0.84375l-0.71875 -0.078125q0.078125 -0.8125 0.5625 -1.234375q0.484375 -0.421875 1.296875 -0.421875q0.828125 0 1.296875 0.453125q0.484375 0.453125 0.484375 1.140625q0 0.34375 -0.140625 0.671875q-0.140625 0.328125 -0.46875 0.703125q-0.3125 0.359375 -1.078125 1.0q-0.625 0.53125 -0.8125 0.71875q-0.171875 0.1875 -0.296875 0.390625l2.8125 0zm0.74609375 -2.15625q0 -1.015625 0.203125 -1.625q0.21875 -0.625 0.625 -0.953125q0.421875 -0.34375 1.046875 -0.34375q0.453125 0 0.796875 0.1875q0.359375 0.1875 0.578125 0.53125q0.234375 0.34375 0.359375 0.859375q0.125 0.5 0.125 1.34375q0 1.015625 -0.203125 1.640625q-0.203125 0.609375 -0.625 0.953125q-0.40625 0.328125 -1.03125 0.328125q-0.828125 0 -1.296875 -0.59375q-0.578125 -0.71875 -0.578125 -2.328125zm0.734375 0q0 1.40625 0.328125 1.875q0.328125 0.46875 0.8125 0.46875q0.484375 0 0.8125 -0.46875q0.328125 -0.46875 0.328125 -1.875q0 -1.40625 -0.328125 -1.875q-0.328125 -0.46875 -0.828125 -0.46875q-0.484375 0 -0.765625 0.40625q-0.359375 0.53125 -0.359375 1.9375zm4.1054688 -0.515625l0 -0.8125l0.8125 0l0 0.8125l-0.8125 0zm0 3.34375l0 -0.796875l0.8125 0l0 0.796875l-0.8125 0zm1.8320312 -2.828125q0 -1.015625 0.203125 -1.625q0.21875 -0.625 0.625 -0.953125q0.421875 -0.34375 1.046875 -0.34375q0.453125 0 0.796875 0.1875q0.359375 0.1875 0.578125 0.53125q0.234375 0.34375 0.359375 0.859375q0.125 0.5 0.125 1.34375q0 1.015625 -0.203125 1.640625q-0.203125 0.609375 -0.625 0.953125q-0.40625 0.328125 -1.03125 0.328125q-0.828125 0 -1.296875 -0.59375q-0.578125 -0.71875 -0.578125 -2.328125zm0.734375 0q0 1.40625 0.328125 1.875q0.328125 0.46875 0.8125 0.46875q0.484375 0 0.8125 -0.46875q0.328125 -0.46875 0.328125 -1.875q0 -1.40625 -0.328125 -1.875q-0.328125 -0.46875 -0.828125 -0.46875q-0.484375 0 -0.765625 0.40625q-0.359375 0.53125 -0.359375 1.9375zm3.7148438 0q0 -1.015625 0.203125 -1.625q0.21875 -0.625 0.625 -0.953125q0.421875 -0.34375 1.046875 -0.34375q0.453125 0 0.796875 0.1875q0.359375 0.1875 0.578125 0.53125q0.234375 0.34375 0.359375 0.859375q0.125 0.5 0.125 1.34375q0 1.015625 -0.203125 1.640625q-0.203125 0.609375 -0.625 0.953125q-0.40625 0.328125 -1.03125 0.328125q-0.828125 0 -1.296875 -0.59375q-0.578125 -0.71875 -0.578125 -2.328125zm0.734375 0q0 1.40625 0.328125 1.875q0.328125 0.46875 0.8125 0.46875q0.484375 0 0.8125 -0.46875q0.328125 -0.46875 0.328125 -1.875q0 -1.40625 -0.328125 -1.875q-0.328125 -0.46875 -0.828125 -0.46875q-0.484375 0 -0.765625 0.40625q-0.359375 0.53125 -0.359375 1.9375z" fill-rule="nonzero"/><path fill="#000000" fill-opacity="0.0" d="m623.8123 540.7979l42.015747 0l0 29.070862l-42.015747 0z" fill-rule="evenodd"/><path fill="#000000" d="m636.84357 556.806l0 0.671875l-3.78125 0q-0.015625 -0.25 0.078125 -0.484375q0.140625 -0.390625 0.453125 -0.765625q0.328125 -0.375 0.921875 -0.875q0.9375 -0.765625 1.265625 -1.203125q0.328125 -0.453125 0.328125 -0.84375q0 -0.421875 -0.296875 -0.703125q-0.296875 -0.296875 -0.78125 -0.296875q-0.5 0 -0.8125 0.3125q-0.296875 0.296875 -0.3125 0.84375l-0.71875 -0.078125q0.078125 -0.8125 0.5625 -1.234375q0.484375 -0.421875 1.296875 -0.421875q0.828125 0 1.296875 0.453125q0.484375 0.453125 0.484375 1.140625q0 0.34375 -0.140625 0.671875q-0.140625 0.328125 -0.46875 0.703125q-0.3125 0.359375 -1.078125 1.0q-0.625 0.53125 -0.8125 0.71875q-0.171875 0.1875 -0.296875 0.390625l2.8125 0zm3.4023438 0.671875l-0.703125 0l0 -4.484375q-0.25 0.25 -0.671875 0.5q-0.40625 0.234375 -0.734375 0.34375l0 -0.671875q0.59375 -0.28125 1.03125 -0.671875q0.4375 -0.390625 0.625 -0.765625l0.453125 0l0 5.75zm2.1835938 -3.34375l0 -0.8125l0.8125 0l0 0.8125l-0.8125 0zm0 3.34375l0 -0.796875l0.8125 0l0 0.796875l-0.8125 0zm1.8320312 -2.828125q0 -1.015625 0.203125 -1.625q0.21875 -0.625 0.625 -0.953125q0.421875 -0.34375 1.046875 -0.34375q0.453125 0 0.796875 0.1875q0.359375 0.1875 0.578125 0.53125q0.234375 0.34375 0.359375 0.859375q0.125 0.5 0.125 1.34375q0 1.015625 -0.203125 1.640625q-0.203125 0.609375 -0.625 0.953125q-0.40625 0.328125 -1.03125 0.328125q-0.828125 0 -1.296875 -0.59375q-0.578125 -0.71875 -0.578125 -2.328125zm0.734375 0q0 1.40625 0.328125 1.875q0.328125 0.46875 0.8125 0.46875q0.484375 0 0.8125 -0.46875q0.328125 -0.46875 0.328125 -1.875q0 -1.40625 -0.328125 -1.875q-0.328125 -0.46875 -0.828125 -0.46875q-0.484375 0 -0.765625 0.40625q-0.359375 0.53125 -0.359375 1.9375zm3.7148438 0q0 -1.015625 0.203125 -1.625q0.21875 -0.625 0.625 -0.953125q0.421875 -0.34375 1.046875 -0.34375q0.453125 0 0.796875 0.1875q0.359375 0.1875 0.578125 0.53125q0.234375 0.34375 0.359375 0.859375q0.125 0.5 0.125 1.34375q0 1.015625 -0.203125 1.640625q-0.203125 0.609375 -0.625 0.953125q-0.40625 0.328125 -1.03125 0.328125q-0.828125 0 -1.296875 -0.59375q-0.578125 -0.71875 -0.578125 -2.328125zm0.734375 0q0 1.40625 0.328125 1.875q0.328125 0.46875 0.8125 0.46875q0.484375 0 0.8125 -0.46875q0.328125 -0.46875 0.328125 -1.875q0 -1.40625 -0.328125 -1.875q-0.328125 -0.46875 -0.828125 -0.46875q-0.484375 0 -0.765625 0.40625q-0.359375 0.53125 -0.359375 1.9375z" fill-rule="nonzero"/><path fill="#000000" fill-opacity="0.0" d="m645.9475 540.7979l42.015747 0l0 29.070862l-42.015747 0z" fill-rule="evenodd"/><path fill="#000000" d="m658.97876 556.806l0 0.671875l-3.78125 0q-0.015625 -0.25 0.078125 -0.484375q0.140625 -0.390625 0.453125 -0.765625q0.328125 -0.375 0.921875 -0.875q0.9375 -0.765625 1.265625 -1.203125q0.328125 -0.453125 0.328125 -0.84375q0 -0.421875 -0.296875 -0.703125q-0.296875 -0.296875 -0.78125 -0.296875q-0.5 0 -0.8125 0.3125q-0.296875 0.296875 -0.3125 0.84375l-0.71875 -0.078125q0.078125 -0.8125 0.5625 -1.234375q0.484375 -0.421875 1.296875 -0.421875q0.828125 0 1.296875 0.453125q0.484375 0.453125 0.484375 1.140625q0 0.34375 -0.140625 0.671875q-0.140625 0.328125 -0.46875 0.703125q-0.3125 0.359375 -1.078125 1.0q-0.625 0.53125 -0.8125 0.71875q-0.171875 0.1875 -0.296875 0.390625l2.8125 0zm4.4492188 0l0 0.671875l-3.78125 0q-0.015625 -0.25 0.078125 -0.484375q0.140625 -0.390625 0.453125 -0.765625q0.328125 -0.375 0.921875 -0.875q0.9375 -0.765625 1.265625 -1.203125q0.328125 -0.453125 0.328125 -0.84375q0 -0.421875 -0.296875 -0.703125q-0.296875 -0.296875 -0.78125 -0.296875q-0.5 0 -0.8125 0.3125q-0.296875 0.296875 -0.3125 0.84375l-0.71875 -0.078125q0.078125 -0.8125 0.5625 -1.234375q0.484375 -0.421875 1.296875 -0.421875q0.828125 0 1.296875 0.453125q0.484375 0.453125 0.484375 1.140625q0 0.34375 -0.140625 0.671875q-0.140625 0.328125 -0.46875 0.703125q-0.3125 0.359375 -1.078125 1.0q-0.625 0.53125 -0.8125 0.71875q-0.171875 0.1875 -0.296875 0.390625l2.8125 0zm1.1367188 -2.671875l0 -0.8125l0.8125 0l0 0.8125l-0.8125 0zm0 3.34375l0 -0.796875l0.8125 0l0 0.796875l-0.8125 0zm1.8320312 -2.828125q0 -1.015625 0.203125 -1.625q0.21875 -0.625 0.625 -0.953125q0.421875 -0.34375 1.046875 -0.34375q0.453125 0 0.796875 0.1875q0.359375 0.1875 0.578125 0.53125q0.234375 0.34375 0.359375 0.859375q0.125 0.5 0.125 1.34375q0 1.015625 -0.203125 1.640625q-0.203125 0.609375 -0.625 0.953125q-0.40625 0.328125 -1.03125 0.328125q-0.828125 0 -1.296875 -0.59375q-0.578125 -0.71875 -0.578125 -2.328125zm0.734375 0q0 1.40625 0.328125 1.875q0.328125 0.46875 0.8125 0.46875q0.484375 0 0.8125 -0.46875q0.328125 -0.46875 0.328125 -1.875q0 -1.40625 -0.328125 -1.875q-0.328125 -0.46875 -0.828125 -0.46875q-0.484375 0 -0.765625 0.40625q-0.359375 0.53125 -0.359375 1.9375zm3.7148438 0q0 -1.015625 0.203125 -1.625q0.21875 -0.625 0.625 -0.953125q0.421875 -0.34375 1.046875 -0.34375q0.453125 0 0.796875 0.1875q0.359375 0.1875 0.578125 0.53125q0.234375 0.34375 0.359375 0.859375q0.125 0.5 0.125 1.34375q0 1.015625 -0.203125 1.640625q-0.203125 0.609375 -0.625 0.953125q-0.40625 0.328125 -1.03125 0.328125q-0.828125 0 -1.296875 -0.59375q-0.578125 -0.71875 -0.578125 -2.328125zm0.734375 0q0 1.40625 0.328125 1.875q0.328125 0.46875 0.8125 0.46875q0.484375 0 0.8125 -0.46875q0.328125 -0.46875 0.328125 -1.875q0 -1.40625 -0.328125 -1.875q-0.328125 -0.46875 -0.828125 -0.46875q-0.484375 0 -0.765625 0.40625q-0.359375 0.53125 -0.359375 1.9375z" fill-rule="nonzero"/><path fill="#000000" fill-opacity="0.0" d="m668.5236 540.7979l42.015747 0l0 29.070862l-42.015747 0z" fill-rule="evenodd"/><path fill="#000000" d="m681.5549 556.806l0 0.671875l-3.78125 0q-0.015625 -0.25 0.078125 -0.484375q0.140625 -0.390625 0.453125 -0.765625q0.328125 -0.375 0.921875 -0.875q0.9375 -0.765625 1.265625 -1.203125q0.328125 -0.453125 0.328125 -0.84375q0 -0.421875 -0.296875 -0.703125q-0.296875 -0.296875 -0.78125 -0.296875q-0.5 0 -0.8125 0.3125q-0.296875 0.296875 -0.3125 0.84375l-0.71875 -0.078125q0.078125 -0.8125 0.5625 -1.234375q0.484375 -0.421875 1.296875 -0.421875q0.828125 0 1.296875 0.453125q0.484375 0.453125 0.484375 1.140625q0 0.34375 -0.140625 0.671875q-0.140625 0.328125 -0.46875 0.703125q-0.3125 0.359375 -1.078125 1.0q-0.625 0.53125 -0.8125 0.71875q-0.171875 0.1875 -0.296875 0.390625l2.8125 0zm0.76171875 -0.84375l0.703125 -0.09375q0.109375 0.59375 0.40625 0.859375q0.296875 0.265625 0.703125 0.265625q0.5 0 0.84375 -0.34375q0.34375 -0.34375 0.34375 -0.84375q0 -0.484375 -0.328125 -0.796875q-0.3125 -0.328125 -0.796875 -0.328125q-0.203125 0 -0.5 0.078125l0.078125 -0.609375q0.078125 0 0.125 0q0.4375 0 0.796875 -0.234375q0.359375 -0.234375 0.359375 -0.71875q0 -0.390625 -0.265625 -0.640625q-0.25 -0.25 -0.671875 -0.25q-0.40625 0 -0.6875 0.265625q-0.265625 0.25 -0.34375 0.765625l-0.703125 -0.125q0.125 -0.703125 0.578125 -1.09375q0.46875 -0.390625 1.140625 -0.390625q0.46875 0 0.859375 0.203125q0.40625 0.203125 0.609375 0.546875q0.21875 0.34375 0.21875 0.734375q0 0.375 -0.203125 0.6875q-0.203125 0.296875 -0.59375 0.46875q0.515625 0.125 0.796875 0.5q0.28125 0.359375 0.28125 0.921875q0 0.75 -0.546875 1.28125q-0.546875 0.515625 -1.390625 0.515625q-0.75 0 -1.25 -0.453125q-0.5 -0.453125 -0.5625 -1.171875zm4.8242188 -1.828125l0 -0.8125l0.8125 0l0 0.8125l-0.8125 0zm0 3.34375l0 -0.796875l0.8125 0l0 0.796875l-0.8125 0zm1.8320312 -2.828125q0 -1.015625 0.203125 -1.625q0.21875 -0.625 0.625 -0.953125q0.421875 -0.34375 1.046875 -0.34375q0.453125 0 0.796875 0.1875q0.359375 0.1875 0.578125 0.53125q0.234375 0.34375 0.359375 0.859375q0.125 0.5 0.125 1.34375q0 1.015625 -0.203125 1.640625q-0.203125 0.609375 -0.625 0.953125q-0.40625 0.328125 -1.03125 0.328125q-0.828125 0 -1.296875 -0.59375q-0.578125 -0.71875 -0.578125 -2.328125zm0.734375 0q0 1.40625 0.328125 1.875q0.328125 0.46875 0.8125 0.46875q0.484375 0 0.8125 -0.46875q0.328125 -0.46875 0.328125 -1.875q0 -1.40625 -0.328125 -1.875q-0.328125 -0.46875 -0.828125 -0.46875q-0.484375 0 -0.765625 0.40625q-0.359375 0.53125 -0.359375 1.9375zm3.7148438 0q0 -1.015625 0.203125 -1.625q0.21875 -0.625 0.625 -0.953125q0.421875 -0.34375 1.046875 -0.34375q0.453125 0 0.796875 0.1875q0.359375 0.1875 0.578125 0.53125q0.234375 0.34375 0.359375 0.859375q0.125 0.5 0.125 1.34375q0 1.015625 -0.203125 1.640625q-0.203125 0.609375 -0.625 0.953125q-0.40625 0.328125 -1.03125 0.328125q-0.828125 0 -1.296875 -0.59375q-0.578125 -0.71875 -0.578125 -2.328125zm0.734375 0q0 1.40625 0.328125 1.875q0.328125 0.46875 0.8125 0.46875q0.484375 0 0.8125 -0.46875q0.328125 -0.46875 0.328125 -1.875q0 -1.40625 -0.328125 -1.875q-0.328125 -0.46875 -0.828125 -0.46875q-0.484375 0 -0.765625 0.40625q-0.359375 0.53125 -0.359375 1.9375z" fill-rule="nonzero"/><path fill="#000000" fill-opacity="0.0" d="m709.77954 3.2545931l0.06298828 536.7244" fill-rule="evenodd"/><path stroke="#000000" stroke-width="1.0" stroke-linejoin="round" stroke-linecap="butt" d="m709.77954 3.2545931l0.06298828 536.7244" fill-rule="evenodd"/><path fill="#000000" fill-opacity="0.0" d="m85.561676 476.11548l0 -414.89764l42.015755 0l0 414.89764z" fill-rule="evenodd"/><path fill="#000000" d="m107.794174 332.34567l0.453125 -1.765625q2.171875 0.5625 3.328125 2.0q1.140625 1.4375 1.140625 3.53125q0 2.15625 -0.875 3.515625q-0.890625 1.34375 -2.546875 2.0625q-1.671875 0.703125 -3.59375 0.703125q-2.078125 0 -3.625 -0.796875q-1.5625 -0.796875 -2.359375 -2.265625q-0.8125 -1.484375 -0.8125 -3.25q0 -2.0 1.015625 -3.359375q1.015625 -1.375 2.875 -1.90625l0.40625 1.734375q-1.453125 0.46875 -2.109375 1.359375q-0.671875 0.875 -0.671875 2.203125q0 1.546875 0.734375 2.578125q0.734375 1.03125 1.984375 1.453125q1.234375 0.421875 2.5625 0.421875q1.703125 0 2.96875 -0.5q1.265625 -0.5 1.90625 -1.546875q0.625 -1.046875 0.625 -2.265625q0 -1.484375 -0.859375 -2.515625q-0.859375 -1.03125 -2.546875 -1.390625zm4.6875 -10.066681l-1.421875 0q1.640625 1.125 1.640625 3.0625q0 0.859375 -0.328125 1.609375q-0.328125 0.734375 -0.828125 1.09375q-0.5 0.359375 -1.21875 0.5q-0.46875 0.109375 -1.53125 0.109375l-5.984375 0l0 -1.640625l5.359375 0q1.28125 0 1.734375 -0.109375q0.640625 -0.15625 1.015625 -0.65625q0.375 -0.5 0.375 -1.234375q0 -0.734375 -0.375 -1.375q-0.390625 -0.65625 -1.03125 -0.921875q-0.65625 -0.265625 -1.890625 -0.265625l-5.1875 0l0 -1.640625l9.671875 0l0 1.46875zm0 -4.0476074l-9.671875 0l0 -1.46875l1.359375 0q-0.71875 -0.453125 -1.140625 -1.203125q-0.4375 -0.765625 -0.4375 -1.71875q0 -1.078125 0.453125 -1.765625q0.4375 -0.6875 1.234375 -0.96875q-1.6875 -1.15625 -1.6875 -2.984375q0 -1.453125 0.796875 -2.21875q0.796875 -0.78125 2.453125 -0.78125l6.640625 0l0 1.640625l-6.09375 0q-0.984375 0 -1.40625 0.15625q-0.4375 0.15625 -0.703125 0.578125q-0.265625 0.421875 -0.265625 0.984375q0 1.015625 0.6875 1.6875q0.671875 0.671875 2.15625 0.671875l5.625 0l0 1.640625l-6.28125 0q-1.09375 0 -1.640625 0.40625q-0.546875 0.40625 -0.546875 1.3125q0 0.6875 0.359375 1.28125q0.359375 0.59375 1.0625 0.859375q0.703125 0.25 2.03125 0.25l5.015625 0l0 1.640625zm0 -21.868927l-1.421875 0q1.640625 1.125 1.640625 3.0625q0 0.859375 -0.328125 1.609375q-0.328125 0.734375 -0.828125 1.09375q-0.5 0.359375 -1.21875 0.5q-0.46875 0.109375 -1.53125 0.109375l-5.984375 0l0 -1.640625l5.359375 0q1.28125 0 1.734375 -0.109375q0.640625 -0.15625 1.015625 -0.65625q0.375 -0.5 0.375 -1.234375q0 -0.734375 -0.375 -1.375q-0.390625 -0.65625 -1.03125 -0.921875q-0.65625 -0.265625 -1.890625 -0.265625l-5.1875 0l0 -1.640625l9.671875 0l0 1.46875zm0 -4.000702l-13.359375 0l0 -1.640625l13.359375 0l0 1.640625zm-1.1875 -10.504211q0.765625 0.921875 1.09375 1.765625q0.3125 0.828125 0.3125 1.796875q0 1.59375 -0.78125 2.453125q-0.78125 0.859375 -1.984375 0.859375q-0.71875 0 -1.296875 -0.328125q-0.59375 -0.328125 -0.9375 -0.84375q-0.359375 -0.53125 -0.546875 -1.1875q-0.125 -0.46875 -0.25 -1.453125q-0.234375 -1.984375 -0.5625 -2.921875q-0.34375 -0.015625 -0.421875 -0.015625q-1.0 0 -1.421875 0.46875q-0.546875 0.625 -0.546875 1.875q0 1.15625 0.40625 1.703125q0.40625 0.546875 1.421875 0.8125l-0.21875 1.609375q-1.015625 -0.21875 -1.640625 -0.71875q-0.640625 -0.5 -0.984375 -1.453125q-0.34375 -0.953125 -0.34375 -2.1875q0 -1.25 0.296875 -2.015625q0.28125 -0.78125 0.734375 -1.140625q0.4375 -0.375 1.109375 -0.515625q0.421875 -0.078125 1.515625 -0.078125l2.1875 0q2.28125 0 2.890625 -0.109375q0.59375 -0.109375 1.15625 -0.40625l0 1.703125q-0.515625 0.265625 -1.1875 0.328125zm-3.671875 0.140625q0.375 0.890625 0.625 2.671875q0.140625 1.015625 0.328125 1.4375q0.1875 0.421875 0.53125 0.65625q0.34375 0.21875 0.78125 0.21875q0.65625 0 1.09375 -0.5q0.4375 -0.5 0.4375 -1.453125q0 -0.9375 -0.40625 -1.671875q-0.421875 -0.75 -1.140625 -1.09375q-0.5625 -0.265625 -1.640625 -0.265625l-0.609375 0zm3.390625 -7.781952l1.453125 -0.234375q0.140625 0.6875 0.140625 1.234375q0 0.890625 -0.28125 1.390625q-0.28125 0.484375 -0.734375 0.6875q-0.46875 0.203125 -1.9375 0.203125l-5.578125 0l0 1.203125l-1.265625 0l0 -1.203125l-2.390625 0l-0.984375 -1.625l3.375 0l0 -1.65625l1.265625 0l0 1.65625l5.671875 0q0.6875 0 0.890625 -0.078125q0.203125 -0.09375 0.328125 -0.28125q0.109375 -0.203125 0.109375 -0.578125q0 -0.265625 -0.0625 -0.71875zm-10.0 -1.6051941l-1.890625 0l0 -1.640625l1.890625 0l0 1.640625zm11.46875 0l-9.671875 0l0 -1.640625l9.671875 0l0 1.640625zm0 -6.832306l-9.671875 3.6875l0 -1.734375l5.796875 -2.078125q0.9375 -0.328125 1.9375 -0.625q-0.765625 -0.203125 -1.828125 -0.609375l-5.90625 -2.140625l0 -1.6875l9.671875 3.65625l0 1.53125zm-3.109375 -13.26564l0.203125 -1.6875q1.484375 0.40625 2.3125 1.484375q0.8125 1.078125 0.8125 2.765625q0 2.1250153 -1.296875 3.3750153q-1.3125 1.234375 -3.671875 1.234375q-2.453125 0 -3.796875 -1.25q-1.34375 -1.265625 -1.34375 -3.2656403q0 -1.9375 1.328125 -3.15625q1.3125 -1.234375 3.703125 -1.234375q0.15625 0 0.4375 0l0 7.2187653q1.59375 -0.09375 2.453125 -0.90625q0.84375 -0.8125 0.84375 -2.0156403q0 -0.90625 -0.46875 -1.546875q-0.484375 -0.640625 -1.515625 -1.015625zm-2.65625 5.3906403l0 -5.4062653q-1.21875 0.109375 -1.828125 0.625q-0.953125 0.78125 -0.953125 2.03125q0 1.1250153 0.765625 1.9062653q0.75 0.765625 2.015625 0.84375zm5.765625 -14.559036l-13.359375 0l0 -5.921875q0 -1.78125 0.359375 -2.703125q0.359375 -0.9375 1.28125 -1.484375q0.90625 -0.5625 2.015625 -0.5625q1.40625 0 2.390625 0.921875q0.96875 0.921875 1.234375 2.84375q0.34375 -0.703125 0.671875 -1.078125q0.703125 -0.765625 1.765625 -1.453125l3.640625 -2.328125l0 2.21875l-2.78125 1.765625q-1.203125 0.78125 -1.828125 1.28125q-0.640625 0.5 -0.890625 0.90625q-0.265625 0.390625 -0.359375 0.796875q-0.078125 0.296875 -0.078125 0.984375l0 2.046875l5.9375 0l0 1.765625zm-7.453125 -1.765625l0 -3.796875q0 -1.21875 -0.25 -1.890625q-0.265625 -0.6875 -0.8125 -1.046875q-0.546875 -0.359375 -1.1875 -0.359375q-0.953125 0 -1.5625 0.6875q-0.609375 0.6875 -0.609375 2.1875l0 4.21875l4.421875 0zm4.34375 -18.097946l0.203125 -1.6875q1.484375 0.40625 2.3125 1.484375q0.8125 1.078125 0.8125 2.765625q0 2.125 -1.296875 3.375q-1.3125 1.234375 -3.671875 1.234375q-2.453125 0 -3.796875 -1.25q-1.34375 -1.265625 -1.34375 -3.265625q0 -1.9375 1.328125 -3.15625q1.3125 -1.234375 3.703125 -1.234375q0.15625 0 0.4375 0l0 7.21875q1.59375 -0.09375 2.453125 -0.90625q0.84375 -0.8125 0.84375 -2.015625q0 -0.90625 -0.46875 -1.546875q-0.484375 -0.640625 -1.515625 -1.015625zm-2.65625 5.390625l0 -5.40625q-1.21875 0.109375 -1.828125 0.625q-0.953125 0.78125 -0.953125 2.03125q0 1.125 0.765625 1.90625q0.75 0.765625 2.015625 0.84375zm5.765625 -9.531952l-8.40625 0l0 1.4531097l-1.265625 0l0 -1.4531097l-1.03125 0q-0.96875 0 -1.453125 -0.171875q-0.640625 -0.234375 -1.03125 -0.828125q-0.390625 -0.59375 -0.390625 -1.671875q0 -0.6875 0.15625 -1.53125l1.4375 0.25q-0.09375 0.5 -0.09375 0.953125q0 0.75 0.328125 1.0625q0.3125 0.3125 1.1875 0.3125l0.890625 0l0 -1.890625l1.265625 0l0 1.890625l8.40625 0l0 1.625zm-11.46875 -4.792694l-1.890625 0l0 -1.640625l1.890625 0l0 1.640625zm11.46875 0l-9.671875 0l0 -1.640625l9.671875 0l0 1.640625zm0 -4.097931l-13.359375 0l0 -1.640625l13.359375 0l0 1.640625zm0 -4.1448364l-13.359375 0l0 -1.640625l13.359375 0l0 1.640625zm-2.890625 -3.5354614l-0.25 -1.625q0.96875 -0.125 1.5 -0.75q0.515625 -0.625 0.515625 -1.75q0 -1.125 -0.453125 -1.671875q-0.46875 -0.546875 -1.09375 -0.546875q-0.546875 0 -0.875 0.484375q-0.21875 0.328125 -0.546875 1.671875q-0.46875 1.8125 -0.796875 2.515625q-0.328125 0.6875 -0.90625 1.046875q-0.59375 0.359375 -1.3125 0.359375q-0.640625 0 -1.1875 -0.296875q-0.5625 -0.296875 -0.921875 -0.8125q-0.28125 -0.375 -0.46875 -1.03125q-0.203125 -0.671875 -0.203125 -1.421875q0 -1.140625 0.328125 -2.0q0.328125 -0.859375 0.890625 -1.265625q0.5625 -0.421875 1.5 -0.578125l0.21875 1.609375q-0.75 0.109375 -1.171875 0.640625q-0.421875 0.515625 -0.421875 1.46875q0 1.140625 0.375 1.625q0.375 0.46875 0.875 0.46875q0.3125 0 0.578125 -0.1875q0.265625 -0.203125 0.4375 -0.640625q0.09375 -0.234375 0.421875 -1.4375q0.453125 -1.75 0.75 -2.4375q0.296875 -0.6875 0.859375 -1.078125q0.5625 -0.390625 1.40625 -0.390625q0.828125 0 1.546875 0.484375q0.71875 0.46875 1.125 1.375q0.390625 0.90625 0.390625 2.046875q0 1.875 -0.78125 2.875q-0.78125 0.984375 -2.328125 1.25z" fill-rule="nonzero"/><path fill="#000000" fill-opacity="0.0" d="m712.0 488.0l-568.0 0" fill-rule="evenodd"/><path stroke="#000000" stroke-width="1.0" stroke-linejoin="round" stroke-linecap="butt" stroke-dasharray="1.0,3.0" d="m712.0 488.0l-568.0 0" fill-rule="evenodd"/><path fill="#000000" fill-opacity="0.0" d="m712.0 440.0l-568.0 0" fill-rule="evenodd"/><path stroke="#000000" stroke-width="1.0" stroke-linejoin="round" stroke-linecap="butt" stroke-dasharray="1.0,3.0" d="m712.0 440.0l-568.0 0" fill-rule="evenodd"/><path fill="#000000" fill-opacity="0.0" d="m712.0 112.0l-570.55115 0" fill-rule="evenodd"/><path stroke="#000000" stroke-width="1.0" stroke-linejoin="round" stroke-linecap="butt" stroke-dasharray="1.0,3.0" d="m712.0 112.0l-570.55115 0" fill-rule="evenodd"/><path fill="#000000" fill-opacity="0.0" d="m712.0 160.0l-570.55115 0" fill-rule="evenodd"/><path stroke="#000000" stroke-width="1.0" stroke-linejoin="round" stroke-linecap="butt" stroke-dasharray="1.0,3.0" d="m712.0 160.0l-570.55115 0" fill-rule="evenodd"/><path fill="#000000" fill-opacity="0.0" d="m712.0 392.0l-568.0 0" fill-rule="evenodd"/><path stroke="#000000" stroke-width="1.0" stroke-linejoin="round" stroke-linecap="butt" stroke-dasharray="1.0,3.0" d="m712.0 392.0l-568.0 0" fill-rule="evenodd"/><path fill="#000000" fill-opacity="0.0" d="m712.0 344.0l-568.0 0" fill-rule="evenodd"/><path stroke="#000000" stroke-width="1.0" stroke-linejoin="round" stroke-linecap="butt" stroke-dasharray="1.0,3.0" d="m712.0 344.0l-568.0 0" fill-rule="evenodd"/><path fill="#000000" fill-opacity="0.0" d="m712.0 296.0l-570.55115 0" fill-rule="evenodd"/><path stroke="#000000" stroke-width="1.0" stroke-linejoin="round" stroke-linecap="butt" stroke-dasharray="1.0,3.0" d="m712.0 296.0l-570.55115 0" fill-rule="evenodd"/><path fill="#000000" fill-opacity="0.0" d="m712.0 248.0l-570.55115 0" fill-rule="evenodd"/><path stroke="#000000" stroke-width="1.0" stroke-linejoin="round" stroke-linecap="butt" stroke-dasharray="1.0,3.0" d="m712.0 248.0l-570.55115 0" fill-rule="evenodd"/><path fill="#000000" fill-opacity="0.0" d="m712.0 200.0l-570.55115 0" fill-rule="evenodd"/><path stroke="#000000" stroke-width="1.0" stroke-linejoin="round" stroke-linecap="butt" stroke-dasharray="1.0,3.0" d="m712.0 200.0l-570.55115 0" fill-rule="evenodd"/><path fill="#000000" fill-opacity="0.0" d="m120.0 464.0l40.0 0l0 42.015747l-40.0 0z" fill-rule="evenodd"/><path fill="#000000" d="m135.95312 490.91998l-1.640625 0l0 -10.453125q-0.59375 0.5625 -1.5625 1.140625q-0.953125 0.5625 -1.71875 0.84375l0 -1.59375q1.375 -0.640625 2.40625 -1.5625q1.03125 -0.921875 1.453125 -1.78125l1.0625 0l0 13.40625z" fill-rule="nonzero"/><path fill="#000000" fill-opacity="0.0" d="m120.0 416.0l40.0 0l0 42.015747l-40.0 0z" fill-rule="evenodd"/><path fill="#000000" d="m138.39062 441.34186l0 1.578125l-8.828125 0q-0.015625 -0.59375 0.1875 -1.140625q0.34375 -0.90625 1.078125 -1.78125q0.75 -0.875 2.15625 -2.015625q2.171875 -1.78125 2.9375 -2.828125q0.765625 -1.046875 0.765625 -1.96875q0 -0.984375 -0.703125 -1.640625q-0.6875 -0.671875 -1.8125 -0.671875q-1.1875 0 -1.90625 0.71875q-0.703125 0.703125 -0.703125 1.953125l-1.6875 -0.171875q0.171875 -1.890625 1.296875 -2.875q1.140625 -0.984375 3.03125 -0.984375q1.921875 0 3.046875 1.0625q1.125 1.0625 1.125 2.640625q0 0.796875 -0.328125 1.578125q-0.328125 0.78125 -1.09375 1.640625q-0.75 0.84375 -2.53125 2.34375q-1.46875 1.234375 -1.890625 1.6875q-0.421875 0.4375 -0.6875 0.875l6.546875 0z" fill-rule="nonzero"/><path fill="#000000" fill-opacity="0.0" d="m120.0 368.0l40.0 0l0 42.015747l-40.0 0z" fill-rule="evenodd"/><path fill="#000000" d="m129.78125 391.38873l1.640625 -0.21875q0.28125 1.40625 0.953125 2.015625q0.6875 0.609375 1.65625 0.609375q1.15625 0 1.953125 -0.796875q0.796875 -0.796875 0.796875 -1.984375q0 -1.125 -0.734375 -1.859375q-0.734375 -0.734375 -1.875 -0.734375q-0.46875 0 -1.15625 0.171875l0.1875 -1.4375q0.15625 0.015625 0.265625 0.015625q1.046875 0 1.875 -0.546875q0.84375 -0.546875 0.84375 -1.671875q0 -0.90625 -0.609375 -1.5q-0.609375 -0.59375 -1.578125 -0.59375q-0.953125 0 -1.59375 0.609375q-0.640625 0.59375 -0.8125 1.796875l-1.640625 -0.296875q0.296875 -1.640625 1.359375 -2.546875q1.0625 -0.90625 2.65625 -0.90625q1.09375 0 2.0 0.46875q0.921875 0.46875 1.40625 1.28125q0.5 0.8125 0.5 1.71875q0 0.859375 -0.46875 1.578125q-0.46875 0.703125 -1.375 1.125q1.1875 0.28125 1.84375 1.140625q0.65625 0.859375 0.65625 2.15625q0 1.734375 -1.28125 2.953125q-1.265625 1.21875 -3.21875 1.21875q-1.765625 0 -2.921875 -1.046875q-1.15625 -1.046875 -1.328125 -2.71875z" fill-rule="nonzero"/><path fill="#000000" fill-opacity="0.0" d="m120.0 320.0l40.0 0l0 42.015747l-40.0 0z" fill-rule="evenodd"/><path fill="#000000" d="m135.03125 346.91998l0 -3.203125l-5.796875 0l0 -1.5l6.09375 -8.65625l1.34375 0l0 8.65625l1.796875 0l0 1.5l-1.796875 0l0 3.203125l-1.640625 0zm0 -4.703125l0 -6.015625l-4.1875 6.015625l4.1875 0z" fill-rule="nonzero"/><path fill="#000000" fill-opacity="0.0" d="m120.0 272.0l40.0 0l0 42.015747l-40.0 0z" fill-rule="evenodd"/><path fill="#000000" d="m129.78125 295.41998l1.71875 -0.140625q0.1875 1.25 0.875 1.890625q0.703125 0.625 1.6875 0.625q1.1875 0 2.0 -0.890625q0.828125 -0.890625 0.828125 -2.359375q0 -1.40625 -0.796875 -2.21875q-0.78125 -0.8125 -2.0625 -0.8125q-0.78125 0 -1.421875 0.359375q-0.640625 0.359375 -1.0 0.9375l-1.546875 -0.203125l1.296875 -6.859375l6.640625 0l0 1.5625l-5.328125 0l-0.71875 3.59375q1.203125 -0.84375 2.515625 -0.84375q1.75 0 2.953125 1.21875q1.203125 1.203125 1.203125 3.109375q0 1.8125 -1.046875 3.140625q-1.296875 1.625 -3.515625 1.625q-1.8125 0 -2.96875 -1.015625q-1.15625 -1.03125 -1.3125 -2.71875z" fill-rule="nonzero"/><path fill="#000000" fill-opacity="0.0" d="m120.0 224.0l40.0 0l0 42.015747l-40.0 0z" fill-rule="evenodd"/><path fill="#000000" d="m129.89062 239.31062l0 -1.578125l8.640625 0l0 1.28125q-1.28125 1.359375 -2.53125 3.609375q-1.25 2.25 -1.9375 4.625q-0.484375 1.671875 -0.625 3.671875l-1.6875 0q0.03125 -1.578125 0.625 -3.8125q0.59375 -2.234375 1.6875 -4.296875q1.109375 -2.078125 2.359375 -3.5l-6.53125 0z" fill-rule="nonzero"/><path fill="#000000" fill-opacity="0.0" d="m120.0 176.0l40.0 0l0 42.015747l-40.0 0z" fill-rule="evenodd"/><path fill="#000000" d="m132.29688 195.68562q-1.015625 -0.375 -1.515625 -1.0625q-0.484375 -0.703125 -0.484375 -1.671875q0 -1.453125 1.046875 -2.4375q1.046875 -1.0 2.78125 -1.0q1.75 0 2.8125 1.015625q1.078125 1.015625 1.078125 2.46875q0 0.9375 -0.5 1.625q-0.484375 0.6875 -1.46875 1.0625q1.21875 0.390625 1.859375 1.28125q0.65625 0.890625 0.65625 2.140625q0 1.703125 -1.21875 2.875q-1.21875 1.171875 -3.1875 1.171875q-1.984375 0 -3.203125 -1.171875q-1.203125 -1.171875 -1.203125 -2.921875q0 -1.3125 0.65625 -2.1875q0.671875 -0.875 1.890625 -1.1875zm-0.328125 -2.78125q0 0.9375 0.609375 1.546875q0.609375 0.59375 1.59375 0.59375q0.9375 0 1.546875 -0.59375q0.609375 -0.59375 0.609375 -1.453125q0 -0.90625 -0.625 -1.515625q-0.625 -0.625 -1.5625 -0.625q-0.9375 0 -1.5625 0.609375q-0.609375 0.59375 -0.609375 1.4375zm-0.53125 6.15625q0 0.703125 0.328125 1.359375q0.34375 0.65625 1.0 1.015625q0.65625 0.359375 1.40625 0.359375q1.171875 0 1.9375 -0.75q0.765625 -0.75 0.765625 -1.921875q0 -1.1875 -0.796875 -1.953125q-0.78125 -0.78125 -1.953125 -0.78125q-1.15625 0 -1.921875 0.765625q-0.765625 0.765625 -0.765625 1.90625z" fill-rule="nonzero"/><path fill="#000000" fill-opacity="0.0" d="m120.0 136.0l40.0 0l0 42.015747l-40.0 0z" fill-rule="evenodd"/><path fill="#000000" d="m130.01562 159.82625l1.578125 -0.140625q0.203125 1.109375 0.765625 1.609375q0.5625 0.5 1.453125 0.5q0.75 0 1.3125 -0.34375q0.578125 -0.34375 0.9375 -0.921875q0.375 -0.578125 0.609375 -1.5625q0.25 -0.984375 0.25 -2.0q0 -0.109375 0 -0.328125q-0.5 0.78125 -1.359375 1.265625q-0.84375 0.484375 -1.828125 0.484375q-1.671875 0 -2.8125 -1.203125q-1.140625 -1.203125 -1.140625 -3.171875q0 -2.03125 1.1875 -3.265625q1.203125 -1.234375 3.0 -1.234375q1.3125 0 2.390625 0.703125q1.078125 0.703125 1.640625 2.0q0.5625 1.296875 0.5625 3.75q0 2.5625 -0.5625 4.078125q-0.5625 1.515625 -1.65625 2.3125q-1.09375 0.796875 -2.578125 0.796875q-1.5625 0 -2.5625 -0.875q-0.984375 -0.875 -1.1875 -2.453125zm6.71875 -5.890625q0 -1.40625 -0.75 -2.234375q-0.75 -0.828125 -1.8125 -0.828125q-1.09375 0 -1.90625 0.890625q-0.8125 0.890625 -0.8125 2.3125q0 1.28125 0.765625 2.078125q0.78125 0.796875 1.90625 0.796875q1.140625 0 1.875 -0.796875q0.734375 -0.796875 0.734375 -2.21875z" fill-rule="nonzero"/><path fill="#000000" fill-opacity="0.0" d="m112.0 88.0l40.0 0l0 42.015747l-40.0 0z" fill-rule="evenodd"/><path fill="#000000" d="m127.953125 114.92l-1.640625 0l0 -10.453125q-0.59375 0.5625 -1.5625 1.140625q-0.953125 0.5625 -1.71875 0.84375l0 -1.59375q1.375 -0.640625 2.40625 -1.5625q1.03125 -0.921875 1.453125 -1.78125l1.0625 0l0 13.40625zm4.203842 -6.59375q0 -2.359375 0.484375 -3.796875q0.484375 -1.453125 1.4375 -2.234375q0.96875 -0.78125 2.421875 -0.78125q1.078125 0 1.890625 0.4375q0.8125 0.421875 1.328125 1.25q0.53125 0.8125 0.828125 1.984375q0.3125 1.15625 0.3125 3.140625q0 2.359375 -0.484375 3.8125q-0.484375 1.4375 -1.453125 2.234375q-0.953125 0.78125 -2.421875 0.78125q-1.921875 0 -3.03125 -1.390625q-1.3125 -1.671875 -1.3125 -5.4375zm1.671875 0q0 3.296875 0.765625 4.390625q0.78125 1.078125 1.90625 1.078125q1.140625 0 1.90625 -1.09375q0.765625 -1.09375 0.765625 -4.375q0 -3.296875 -0.765625 -4.375q-0.765625 -1.078125 -1.921875 -1.078125q-1.125 0 -1.796875 0.953125q-0.859375 1.21875 -0.859375 4.5z" fill-rule="nonzero"/></g></svg>